<svg width="24" height="24" viewBox="0 0 24 24" fill="none" xmlns="http://www.w3.org/2000/svg">
<path d="M6.96094 18.9983L17.4785 8.49053L15.6328 6.64483L5.11523 17.1526L4.20703 19.3694C4.14844 19.5192 4.17773 19.6526 4.29492 19.7698C4.41211 19.887 4.54232 19.9228 4.68555 19.8773L6.96094 18.9983ZM18.3965 7.5921L19.4219 6.57647C19.6758 6.32257 19.806 6.05889 19.8125 5.78546C19.8255 5.51202 19.7181 5.25811 19.4902 5.02374L19.1094 4.64288C18.875 4.4085 18.6211 4.30108 18.3477 4.32061C18.0807 4.34014 17.8203 4.47361 17.5664 4.721L16.5312 5.73663L18.3965 7.5921Z" fill="#7010DF"/>
</svg>
