<svg width="24" height="24" viewBox="0 0 24 24" fill="none" xmlns="http://www.w3.org/2000/svg">
<path d="M3.17188 17.9043V7.80664C3.17188 5.7168 4.26562 4.63281 6.375 4.63281H7.77148C7.81055 2.45508 9.67578 0.648438 11.9902 0.648438C14.3145 0.648438 16.1699 2.45508 16.2188 4.63281H17.6152C19.7148 4.63281 20.8184 5.7168 20.8184 7.80664V17.9043C20.8184 19.9844 19.7246 21.0781 17.8594 21.0781H6.375C4.26562 21.0781 3.17188 19.9941 3.17188 17.9043ZM9.61719 4.63281H14.373C14.334 3.36328 13.3379 2.34766 11.9902 2.34766C10.6523 2.34766 9.65625 3.36328 9.61719 4.63281ZM5.08594 17.7383C5.08594 18.6855 5.58398 19.1641 6.49219 19.1641H17.7422C18.3965 19.1641 18.9043 18.6855 18.9043 17.7383V7.97266C18.9043 7.01562 18.3965 6.54688 17.498 6.54688H6.49219C5.58398 6.54688 5.08594 7.01562 5.08594 7.97266V17.7383Z" fill="#0A0019"/>
</svg>
