<svg width="80" height="80" viewBox="0 0 80 80" fill="none" xmlns="http://www.w3.org/2000/svg">
<path d="M32.2168 39.9961C32.2168 40.3086 32.3275 40.5755 32.5488 40.7969C32.7702 41.0182 33.0339 41.1289 33.3398 41.1289H38.877V46.6562C38.877 46.9622 38.9844 47.2259 39.1992 47.4473C39.4206 47.6686 39.6875 47.7793 40 47.7793C40.3125 47.7793 40.5762 47.6686 40.791 47.4473C41.0124 47.2259 41.123 46.9622 41.123 46.6562V41.1289H46.6602C46.9661 41.1289 47.2266 41.0182 47.4414 40.7969C47.6628 40.5755 47.7734 40.3086 47.7734 39.9961C47.7734 39.6901 47.6628 39.4264 47.4414 39.2051C47.2266 38.9837 46.9661 38.873 46.6602 38.873H41.123V33.3457C41.123 33.0397 41.0124 32.776 40.791 32.5547C40.5762 32.3268 40.3125 32.2129 40 32.2129C39.6875 32.2129 39.4206 32.3268 39.1992 32.5547C38.9844 32.776 38.877 33.0397 38.877 33.3457V38.873H33.3398C33.0339 38.873 32.7702 38.9837 32.5488 39.2051C32.3275 39.4264 32.2168 39.6901 32.2168 39.9961Z" fill="#7010DF"/>
<rect x="0.5" y="0.5" width="79" height="79" rx="9.5" stroke="#D6C0F5" stroke-dasharray="6 6"/>
</svg>
