<svg width="24" height="24" viewBox="0 0 24 24" fill="none" xmlns="http://www.w3.org/2000/svg">
<path d="M7.50871 21.5941C5.86516 21.5941 4.81047 20.5482 4.7841 18.9135L4.67863 10.9242L2.96477 11.3021C1.87492 11.5219 1.16301 11.1176 0.943281 10.0541L0.19621 6.68788C-0.0323051 5.62441 0.380781 4.88613 1.36516 4.46425L7.37687 1.91542C7.89543 1.6957 8.27336 1.70448 8.71281 1.91542C9.90812 2.46913 10.7607 2.71523 11.9911 2.71523C13.2304 2.71523 14.0829 2.46913 15.2782 1.91542C15.7177 1.70448 16.0956 1.6957 16.6142 1.91542L22.6259 4.46425C23.6103 4.88613 24.0234 5.62441 23.7948 6.68788L23.0478 10.0541C22.828 11.1176 22.1161 11.5219 21.0263 11.3021L19.3124 10.9242L19.207 18.9135C19.1806 20.5482 18.1259 21.5941 16.4823 21.5941H7.50871ZM7.52629 19.766H16.4648C17.0273 19.766 17.37 19.4144 17.3788 18.8344L17.5019 9.02577C17.5019 8.82363 17.6601 8.683 17.9062 8.73573L21.0439 9.43007C21.2109 9.46523 21.3251 9.39491 21.3515 9.2455L21.9755 6.46816C22.0195 6.26601 21.9579 6.18691 21.7997 6.11659L16.4911 3.86659C16.0077 5.94081 14.1708 7.37343 11.9911 7.37343C9.82023 7.37343 7.98332 5.94081 7.49992 3.86659L2.18254 6.11659C2.03312 6.18691 1.9716 6.26601 2.01555 6.46816L2.63957 9.2455C2.66594 9.39491 2.78019 9.46523 2.94719 9.43007L6.08488 8.73573C6.33098 8.683 6.48918 8.82363 6.48918 9.02577L6.61223 18.8344C6.62102 19.4144 6.96379 19.766 7.52629 19.766ZM11.9911 4.45546C11.0683 4.45546 10.2597 4.32363 9.46867 4.05116C9.96086 4.96523 10.9013 5.54531 11.9911 5.54531C13.0898 5.54531 14.0302 4.96523 14.5224 4.05116C13.7314 4.32363 12.914 4.45546 11.9911 4.45546Z" fill="#0A0019"/>
</svg>
