<svg width="24" height="24" viewBox="0 0 24 24" fill="none" xmlns="http://www.w3.org/2000/svg">
<path d="M3.55469 19.6641C1.72656 19.6641 0.445312 18.4688 0.445312 16.5156C0.445312 15.6719 0.625 14.7188 0.9375 13.6797C1.42188 12.0547 2.25781 9.86719 3.05469 8.19531C3.73438 6.76562 4.125 6.03906 5.875 5.64062C7.40625 5.28906 9.48438 5.07031 12 5.07031C14.5156 5.07031 16.5938 5.28906 18.1172 5.64062C19.875 6.03906 20.2656 6.76562 20.9453 8.19531C21.7422 9.86719 22.5781 12.0547 23.0625 13.6797C23.375 14.7188 23.5547 15.6719 23.5547 16.5156C23.5547 18.4688 22.2656 19.6641 20.4453 19.6641C19.2188 19.6641 18.3906 19.1953 17.6641 18.3828L16.2969 16.8281C16.0938 16.6094 15.9141 16.5078 15.6641 16.5078H8.33594C8.08594 16.5078 7.89844 16.6094 7.70312 16.8281L6.33594 18.3828C5.60938 19.1953 4.77344 19.6641 3.55469 19.6641ZM5.58594 10.875C5.58594 11.3281 5.875 11.6172 6.34375 11.6172H7.59375V12.8281C7.59375 13.2891 7.875 13.5859 8.33594 13.5859C8.78125 13.5859 9.07031 13.2891 9.07031 12.8281V11.6172H10.25C10.75 11.6172 11.0469 11.3281 11.0469 10.875C11.0469 10.4219 10.75 10.1406 10.25 10.1406H9.07031V8.9375C9.07031 8.46875 8.78125 8.17188 8.33594 8.17188C7.875 8.17188 7.59375 8.46875 7.59375 8.9375V10.1406H6.34375C5.875 10.1406 5.58594 10.4219 5.58594 10.875ZM15.6641 9.64062C15.6641 10.3125 16.1797 10.8125 16.8359 10.8125C17.5078 10.8125 18.0156 10.3125 18.0156 9.64062C18.0156 8.97656 17.5078 8.46094 16.8359 8.46094C16.1797 8.46094 15.6641 8.97656 15.6641 9.64062ZM13.3281 12.0156C13.3281 12.6719 13.8438 13.1875 14.5 13.1875C15.1719 13.1875 15.6797 12.6719 15.6797 12.0156C15.6797 11.3438 15.1719 10.8281 14.5 10.8281C13.8438 10.8281 13.3281 11.3438 13.3281 12.0156Z" fill="#0A0019"/>
</svg>
