<svg width="32" height="32" viewBox="0 0 32 32" fill="none" xmlns="http://www.w3.org/2000/svg">
<path d="M15.9883 16.9219C15.332 16.9219 14.793 16.3828 14.793 15.7383V4.93359L14.8867 3.19922L14.207 4.08984L12.6719 5.73047C12.4609 5.95312 12.168 6.08203 11.8633 6.08203C11.2891 6.08203 10.8203 5.66016 10.8203 5.0625C10.8203 4.75781 10.9375 4.52344 11.1484 4.3125L15.0625 0.550781C15.3789 0.234375 15.6719 0.128906 15.9883 0.128906C16.3047 0.128906 16.6094 0.234375 16.9258 0.550781L20.8281 4.3125C21.0508 4.52344 21.168 4.75781 21.168 5.0625C21.168 5.66016 20.6758 6.08203 20.1133 6.08203C19.8086 6.08203 19.5156 5.95312 19.3164 5.73047L17.7695 4.08984L17.0898 3.21094L17.1953 4.93359V15.7383C17.1953 16.3828 16.6562 16.9219 15.9883 16.9219ZM6.03906 28.0312C3.44922 28.0312 2.06641 26.6719 2.06641 24.0938V17.25C2.06641 15.9023 2.17188 15.1289 2.79297 14.3672L6.01562 10.4297C7.66797 8.40234 8.27734 7.92188 10.4688 7.92188H12.625V10.0547H10.457C9.66016 10.0547 9.16797 10.2305 8.5 11.0508L5.01953 15.3281C4.65625 15.7852 4.78516 16.043 5.37109 16.043H12.6367C13.2578 16.043 13.5273 16.4531 13.5273 16.8984V16.9336C13.5273 18.1406 14.4648 19.4531 15.9883 19.4531C17.5234 19.4531 18.4492 18.1406 18.4492 16.9336V16.8984C18.4492 16.4531 18.7305 16.043 19.3516 16.043H26.6172C27.1797 16.043 27.3438 15.8086 26.957 15.3281L23.4766 11.0273C22.8086 10.2188 22.3164 10.0547 21.5195 10.0547H19.3633V7.92188H21.5078C23.6992 7.92188 24.3203 8.41406 25.9492 10.3945L29.1836 14.3672C29.8164 15.1289 29.9219 15.9023 29.9219 17.25V24.0938C29.9219 26.6602 28.5391 28.0312 25.9492 28.0312H6.03906ZM6.20312 25.418H25.7734C26.793 25.418 27.3555 24.9023 27.3555 23.8242V18.3047H20.5938C20.1602 20.332 18.3555 21.8438 15.9883 21.8438C13.6328 21.8438 11.8164 20.332 11.3945 18.3047H4.62109V23.8242C4.62109 24.9023 5.18359 25.418 6.20312 25.418Z" fill="#0A0019"/>
</svg>
