<svg width="24" height="24" viewBox="0 0 24 24" fill="none" xmlns="http://www.w3.org/2000/svg">
<path d="M2.70312 12.8809C2.31641 12.8809 2 12.582 2 12.1865C2 11.791 2.31641 11.4922 2.70312 11.4922H4.20605C4.53125 7.59863 7.61621 4.51367 11.4922 4.17969V2.70312C11.4922 2.30762 11.7998 2 12.1865 2C12.582 2 12.8896 2.30762 12.8896 2.70312V4.17969C16.7744 4.51367 19.8506 7.59863 20.1846 11.4922H21.6787C22.0742 11.4922 22.3818 11.791 22.3818 12.1865C22.3818 12.582 22.0742 12.8809 21.6787 12.8809H20.1846C19.8506 16.7744 16.7744 19.8682 12.8896 20.1934V21.6787C12.8896 22.0654 12.582 22.373 12.1865 22.373C11.7998 22.373 11.4922 22.0654 11.4922 21.6787V20.1934C7.61621 19.8682 4.53125 16.7744 4.20605 12.8809H2.70312ZM12.1865 8.96973C11.7998 8.96973 11.4922 8.66211 11.4922 8.2666V5.90234C8.56543 6.21875 6.28906 8.53027 5.97266 11.4922H8.27539C8.66211 11.4922 8.97852 11.791 8.97852 12.1865C8.97852 12.582 8.66211 12.8809 8.27539 12.8809H5.97266C6.28906 15.8428 8.56543 18.1543 11.4922 18.4795V16.1064C11.4922 15.7197 11.7998 15.4033 12.1865 15.4033C12.582 15.4033 12.8896 15.7197 12.8896 16.1064V18.4795C15.8252 18.1543 18.1016 15.8428 18.4092 12.8809H16.1152C15.7197 12.8809 15.4121 12.582 15.4121 12.1865C15.4121 11.791 15.7197 11.4922 16.1152 11.4922H18.4092C18.1016 8.53027 15.8252 6.21875 12.8896 5.90234V8.2666C12.8896 8.66211 12.582 8.96973 12.1865 8.96973Z" fill="#6508D9"/>
</svg>
