<svg width="24" height="24" viewBox="0 0 24 24" fill="none" xmlns="http://www.w3.org/2000/svg">
<g id="ico_chevright">
<path id="icon" d="M18.0059 12C18.0059 11.8242 17.9733 11.6615 17.9082 11.5117C17.8431 11.362 17.7389 11.2188 17.5957 11.082L10.4473 4.08984C10.2259 3.86849 9.95573 3.75781 9.63672 3.75781C9.41536 3.75781 9.21354 3.8099 9.03125 3.91406C8.85547 4.01172 8.71549 4.14844 8.61133 4.32422C8.50716 4.5 8.45508 4.69857 8.45508 4.91992C8.45508 5.23893 8.57552 5.52214 8.81641 5.76953L15.2129 12L8.81641 18.2305C8.57552 18.4779 8.45508 18.7611 8.45508 19.0801C8.45508 19.2949 8.50716 19.4902 8.61133 19.666C8.71549 19.8483 8.85547 19.9915 9.03125 20.0957C9.21354 20.1999 9.41536 20.252 9.63672 20.252C9.95573 20.252 10.2259 20.1413 10.4473 19.9199L17.5957 12.918C17.7454 12.7812 17.8496 12.638 17.9082 12.4883C17.9733 12.3385 18.0059 12.1758 18.0059 12Z" fill="#0A0019"/>
</g>
</svg>
