<svg width="32" height="32" viewBox="0 0 32 32" fill="none" xmlns="http://www.w3.org/2000/svg">
<rect width="32" height="32" rx="10" fill="#0A0019"/>
<path d="M9.21514 16.247C9.21065 15.7309 9.67296 15.2865 10.1577 15.2865H15.2925L15.2836 10.1607C15.288 9.67143 15.7279 9.21361 16.2486 9.21361C16.7737 9.20912 17.2181 9.67143 17.2136 10.1607L17.2136 15.2865L22.3394 15.2865C22.8421 15.2865 23.282 15.7264 23.282 16.247C23.2865 16.7722 22.8466 17.2121 22.3349 17.2121L17.2181 17.2121L17.2136 22.3334C17.2136 22.8451 16.7737 23.276 16.2486 23.2805C15.7324 23.285 15.288 22.8406 15.288 22.3379V17.2121H10.1622C9.67296 17.2166 9.21963 16.7722 9.21514 16.247Z" fill="white"/>
</svg>
