<svg width="25" height="24" viewBox="0 0 25 24" fill="none" xmlns="http://www.w3.org/2000/svg">
<path d="M0.681152 19.9756C0.307617 19.9756 0 19.668 0 19.3018C0 18.9282 0.307617 18.6279 0.681152 18.6279H2.04346C2.02148 18.5034 2.01416 18.3716 2.01416 18.2251V11.6626L1.30371 12.0288C0.161133 12.6221 -0.498047 11.1719 0.46875 10.6519L7.63916 6.84326C8.32031 6.48438 8.8916 6.48438 9.57275 6.84326L16.7432 10.6519C17.71 11.1719 17.0508 12.6221 15.9082 12.0288L15.1831 11.6553V18.2251C15.1831 18.3643 15.1758 18.5034 15.1538 18.6279H18.4131V4.30176C18.4131 3.97949 18.5669 3.73779 18.8599 3.60596C19.1235 3.48877 19.3433 3.4375 19.8486 3.4375C21.0498 3.4375 21.8042 4.02344 22.8882 4.02344C23.4082 4.02344 23.6938 3.88428 23.9062 3.88428C24.2065 3.88428 24.3457 4.04541 24.3457 4.29443V7.52441C24.3457 7.86865 24.2139 8.0957 23.9062 8.23486C23.6353 8.35205 23.4155 8.40332 22.9175 8.40332C21.8042 8.40332 21.0718 7.83203 19.9805 7.83203C19.8853 7.83203 19.8193 7.83936 19.7534 7.854V18.6279H22.0825C22.4561 18.6279 22.7563 18.9282 22.7563 19.3018C22.7563 19.668 22.4561 19.9756 22.0825 19.9756H0.681152ZM10.7886 13.9331V18.3789H12.9126C13.3447 18.3789 13.5864 18.1372 13.5864 17.6904V10.835L8.84033 8.38135C8.68652 8.30078 8.51807 8.30078 8.37891 8.38135L3.60352 10.8423V17.6904C3.60352 18.1372 3.84521 18.3789 4.28467 18.3789H6.43066V13.9331C6.43066 13.6035 6.65039 13.3838 6.9873 13.3838H10.2319C10.5688 13.3838 10.7886 13.6035 10.7886 13.9331Z" fill="#0A0019"/>
</svg>
