<svg width="18" height="18" viewBox="0 0 18 18" fill="none" xmlns="http://www.w3.org/2000/svg">
<path d="M14.1489 6.72949C14.2209 6.65332 14.2759 6.5708 14.314 6.48193C14.3521 6.3973 14.3711 6.29997 14.3711 6.18994C14.3711 6.05029 14.3372 5.92334 14.2695 5.80908C14.2018 5.69482 14.1108 5.60173 13.9966 5.52979C13.8823 5.46208 13.7533 5.42822 13.6094 5.42822C13.3893 5.42822 13.2052 5.50651 13.0571 5.66309L8.72168 10.1064L9.28662 10.1064L4.95752 5.66309C4.80941 5.50651 4.62533 5.42822 4.40527 5.42822C4.26139 5.42822 4.13232 5.46208 4.01807 5.52978C3.90381 5.60172 3.81283 5.69482 3.74512 5.80908C3.67318 5.92334 3.63721 6.05029 3.63721 6.18994C3.63721 6.40576 3.71126 6.58561 3.85938 6.72949L8.4043 11.3696C8.48893 11.4627 8.58203 11.5304 8.68359 11.5728C8.78516 11.6193 8.89307 11.6426 9.00732 11.6426C9.23161 11.6426 9.43262 11.5516 9.61035 11.3696L14.1489 6.72949Z" fill="#7B7D92"/>
</svg>
