<svg width="24" height="24" viewBox="0 0 24 24" fill="none" xmlns="http://www.w3.org/2000/svg">
<path d="M24 0H0V24H24V0Z" fill="#0A5F78"/>
<path d="M12.9913 13.1314C12.9954 13.1113 12.9983 13.0909 13.0001 13.0705C12.998 13.0907 12.9949 13.1104 12.9913 13.1314Z" fill="#F8FCFB"/>
<path d="M12.9913 13.1314C12.9954 13.1113 12.9983 13.0909 13.0001 13.0705C12.998 13.0907 12.9949 13.1104 12.9913 13.1314Z" fill="#F8FCFB"/>
<path d="M19.4527 14.4C18.9046 12.8799 18.3573 11.3596 17.8107 9.83909C17.7854 9.7687 17.7478 9.75312 17.6803 9.75384C17.3937 9.75688 17.1072 9.76423 16.8206 9.75097C16.6864 9.74488 16.635 9.79199 16.5929 9.91217C16.3907 10.4932 16.1785 11.0708 15.9698 11.6495C15.8879 11.9239 15.7914 12.1937 15.6806 12.4578C15.5332 12.9066 15.2036 13.7923 15.2036 13.7923C15.2036 13.7923 15.1703 13.8972 15.1513 13.9517C15.1298 14.0131 15.108 14.0728 15.0858 14.1308L14.9751 14.4958C15.2699 14.4958 15.5532 14.4949 15.8348 14.4958L16.1454 13.5645C16.1529 13.5419 16.1673 13.5223 16.1866 13.5084C16.2059 13.4945 16.2291 13.4871 16.2528 13.4871L18.0618 13.5036C18.0836 13.5037 18.1049 13.5102 18.1232 13.5223C18.1414 13.5343 18.1557 13.5514 18.1644 13.5715C18.1655 13.5738 18.1664 13.5761 18.1673 13.5786L18.3437 14.0706L18.494 14.4915C18.5056 14.4947 18.5177 14.4962 18.5298 14.4958C18.8403 14.4944 19.1509 14.4958 19.4568 14.4958C19.4763 14.4546 19.4627 14.4279 19.4527 14.4ZM16.5691 12.7153L17.2039 10.7712H17.2361C17.4466 11.4159 17.6568 12.0607 17.87 12.7157L16.5691 12.7153Z" fill="#F8FCFB"/>
<path d="M8.76608 14.4C8.21802 12.8799 7.67068 11.3596 7.12405 9.83909C7.0988 9.7687 7.06118 9.75312 6.99366 9.75384C6.70709 9.75688 6.42053 9.76423 6.13396 9.75097C5.99981 9.74488 5.94841 9.79199 5.90632 9.91217C5.70411 10.4932 5.49187 11.0708 5.28321 11.6495C5.20129 11.9239 5.10474 12.1937 4.99396 12.4578C4.84656 12.9066 4.517 13.7923 4.517 13.7923C4.517 13.7923 4.48369 13.8972 4.46471 13.9517C4.44321 14.0131 4.42136 14.0728 4.39915 14.1308L4.28847 14.4958C4.58327 14.4958 4.86662 14.4949 5.14906 14.4958L5.45963 13.5645C5.4672 13.5418 5.48176 13.5221 5.50123 13.5082C5.5207 13.4943 5.54407 13.4869 5.56799 13.4871L7.37695 13.5036C7.39879 13.5037 7.42011 13.5102 7.43833 13.5223C7.45654 13.5343 7.47087 13.5514 7.47957 13.5715C7.48065 13.5738 7.48154 13.5761 7.48244 13.5786L7.65886 14.0706L7.80912 14.4915C7.82079 14.4947 7.83286 14.4962 7.84495 14.4958C8.15551 14.4944 8.46608 14.4958 8.77199 14.4958C8.78972 14.4546 8.77611 14.4279 8.76608 14.4ZM5.8825 12.7153L6.51724 10.7712H6.54948C6.75993 11.4159 6.9702 12.0607 7.18333 12.7157L5.8825 12.7153Z" fill="#F8FCFB"/>
<path d="M20.8478 8.81194H19.8985V10.7642H20.8478V8.81194Z" fill="#ED1F24"/>
<path d="M13.3042 11.9373V11.9284C13.5074 11.8349 13.6683 11.6688 13.7552 11.4627C13.7773 11.4043 13.7952 11.3445 13.809 11.2836C13.8192 11.2381 13.827 11.192 13.8322 11.1457C13.8593 11.0171 13.8283 10.7207 13.827 10.701C13.7674 10.3168 13.5503 10.0562 13.1973 9.90467C12.9781 9.81235 12.7426 9.76485 12.5047 9.76497C11.7679 9.75655 11.0309 9.76103 10.294 9.75208C10.1706 9.75064 10.137 9.78145 10.1373 9.90521C10.1415 11.3841 10.1415 12.863 10.1373 14.3418C10.1373 14.46 10.161 14.5001 10.2899 14.4991C10.9773 14.4933 11.6647 14.4991 12.3523 14.5007C12.6269 14.4668 12.9057 14.4543 13.166 14.3457C13.2145 14.3255 13.2699 14.3166 13.3067 14.2732V14.272C13.7158 14.0882 13.9309 13.7565 13.9934 13.3274C14.0862 12.6996 13.9125 12.1777 13.3042 11.9373ZM11.0687 10.406H12.3851C12.549 10.406 12.7061 10.4711 12.822 10.587C12.9379 10.7028 13.003 10.86 13.003 11.0239C13.003 11.1878 12.9379 11.3449 12.822 11.4608C12.7061 11.5767 12.549 11.6418 12.3851 11.6418H11.0687V10.406ZM13.0001 13.0705C12.9983 13.091 12.9954 13.1113 12.9913 13.1314C12.9911 13.1331 12.9908 13.1348 12.9904 13.1364C12.9836 13.1746 12.9749 13.2131 12.9645 13.2516C12.9156 13.4339 12.7904 13.5297 12.6356 13.5769C12.5865 13.5914 12.5363 13.6018 12.4854 13.6078C12.4012 13.6182 12.317 13.6257 12.2327 13.6299C11.8734 13.6496 11.5127 13.6252 11.153 13.6354C11.1385 13.6364 11.1239 13.6345 11.11 13.6299H11.0687V12.394H12.3851C12.4815 12.3938 12.5766 12.4163 12.6627 12.4596C12.7251 12.4827 12.7815 12.5194 12.8278 12.5671C12.8233 12.5671 12.8187 12.5671 12.8142 12.5671C12.8187 12.5712 12.823 12.5755 12.8273 12.58C12.8273 12.576 12.8282 12.5719 12.8287 12.5678C12.9851 12.7146 13.0209 12.8884 13.0001 13.0705Z" fill="#F8FCFB"/>
</svg>
