<svg width="24" height="24" viewBox="0 0 24 24" fill="none" xmlns="http://www.w3.org/2000/svg">
<path d="M4.27441 11.0127C2.75391 11.0127 1.98047 10.248 1.98047 8.72754V5.26465C1.98047 3.74414 2.75391 2.98828 4.27441 2.98828H19.7168C21.2373 2.98828 22.0107 3.74414 22.0107 5.26465V8.72754C22.0107 10.248 21.2373 11.0127 19.7168 11.0127H4.27441ZM4.27441 20.3467C2.75391 20.3467 1.98047 19.5908 1.98047 18.0615V14.5986C1.98047 13.0781 2.75391 12.3223 4.27441 12.3223H19.7168C21.2373 12.3223 22.0107 13.0781 22.0107 14.5986V18.0615C22.0107 19.5908 21.2373 20.3467 19.7168 20.3467H4.27441Z" fill="#0A0019"/>
</svg>
