<svg width="110" height="108" viewBox="0 0 110 108" fill="none" xmlns="http://www.w3.org/2000/svg">
<path d="M50.6328 50.2949C45.9492 50.2949 41.9746 46.127 41.9746 40.7773C41.9531 35.5352 45.9707 31.4531 50.6328 31.4531C55.2949 31.4531 59.291 35.4707 59.291 40.7344C59.291 46.127 55.3379 50.2949 50.6328 50.2949ZM36.3242 70.2754C33.918 70.2754 32.4785 69.1367 32.4785 67.2461C32.4785 61.7031 39.4824 54.0977 50.6328 54.0977C61.7617 54.0977 68.7871 61.7031 68.7871 67.2461C68.7871 69.1367 67.3262 70.2754 64.9199 70.2754H36.3242Z" fill="#B8BBBE"/>
<circle cx="51" cy="51" r="50" stroke="#B8BBBE" stroke-width="2" stroke-dasharray="8 8"/>
<circle cx="88.5" cy="86.5" r="21.5" fill="#7010DF"/>
<path d="M79.7917 96.2441C78.6459 96.2441 77.7686 95.9434 77.1599 95.3418C76.5583 94.7402 76.2575 93.8701 76.2575 92.7314V82.043C76.2575 80.9115 76.5583 80.0449 77.1599 79.4434C77.7686 78.8418 78.6459 78.541 79.7917 78.541H82.2194C82.6133 78.541 82.9105 78.5016 83.111 78.4229C83.3116 78.3369 83.5479 78.1615 83.82 77.8965L84.6149 77.0908C84.8871 76.8187 85.1807 76.6182 85.4958 76.4893C85.8181 76.3532 86.2334 76.2852 86.7419 76.2852H91.071C91.5795 76.2852 91.9912 76.3532 92.3064 76.4893C92.6286 76.6182 92.9258 76.8187 93.198 77.0908L93.9929 77.8965C94.1719 78.0684 94.333 78.2008 94.4763 78.2939C94.6195 78.387 94.7735 78.4515 94.9382 78.4873C95.1101 78.5231 95.3285 78.541 95.5935 78.541H98.0534C99.1993 78.541 100.073 78.8418 100.675 79.4434C101.283 80.0449 101.588 80.9115 101.588 82.043V92.7314C101.588 93.8701 101.283 94.7402 100.675 95.3418C100.073 95.9434 99.1993 96.2441 98.0534 96.2441H79.7917ZM88.9333 92.8281C89.9287 92.8281 90.8347 92.5882 91.6511 92.1084C92.4746 91.6214 93.1263 90.9697 93.6062 90.1533C94.0931 89.3298 94.3366 88.4167 94.3366 87.4141C94.3366 86.4043 94.0931 85.4912 93.6062 84.6748C93.1263 83.8584 92.4746 83.2067 91.6511 82.7197C90.8347 82.2327 89.9287 81.9893 88.9333 81.9893C87.9307 81.9893 87.0176 82.2327 86.194 82.7197C85.3776 83.2067 84.7259 83.8584 84.239 84.6748C83.7592 85.4912 83.5192 86.4043 83.5192 87.4141C83.5192 88.4167 83.7592 89.3298 84.239 90.1533C84.7259 90.9697 85.3776 91.6214 86.194 92.1084C87.0176 92.5882 87.9307 92.8281 88.9333 92.8281ZM88.9333 90.6475C88.3389 90.6475 87.7946 90.5007 87.3005 90.207C86.8135 89.9134 86.4232 89.5231 86.1296 89.0361C85.8431 88.5492 85.6999 88.0085 85.6999 87.4141C85.6999 86.8125 85.8431 86.2682 86.1296 85.7812C86.4232 85.2871 86.8135 84.8968 87.3005 84.6104C87.7946 84.3239 88.3389 84.1807 88.9333 84.1807C89.5277 84.1807 90.0684 84.3239 90.5554 84.6104C91.0424 84.8968 91.4291 85.2871 91.7155 85.7812C92.0092 86.2682 92.156 86.8125 92.156 87.4141C92.156 88.0085 92.0092 88.5492 91.7155 89.0361C91.4291 89.5231 91.0424 89.9134 90.5554 90.207C90.0684 90.5007 89.5277 90.6475 88.9333 90.6475ZM94.9597 83.6758C94.9597 84.0697 95.0993 84.4027 95.3786 84.6748C95.6579 84.9469 95.9909 85.083 96.3776 85.083C96.7644 85.0758 97.0938 84.9398 97.3659 84.6748C97.6452 84.4027 97.7849 84.0697 97.7849 83.6758C97.7849 83.2962 97.6452 82.9704 97.3659 82.6982C97.0866 82.4189 96.7572 82.2793 96.3776 82.2793C95.9909 82.2793 95.6579 82.4189 95.3786 82.6982C95.0993 82.9704 94.9597 83.2962 94.9597 83.6758Z" fill="white"/>
</svg>
