<svg width="25" height="24" viewBox="0 0 25 24" fill="none" xmlns="http://www.w3.org/2000/svg">
<path d="M12.5 21.5957C13.8151 21.5957 15.0488 21.3451 16.2012 20.8438C17.36 20.3424 18.3822 19.6491 19.2676 18.7637C20.153 17.8848 20.8464 16.8659 21.3477 15.707C21.849 14.5482 22.0996 13.3112 22.0996 11.9961C22.0996 10.681 21.8457 9.44727 21.3379 8.29492C20.8366 7.13607 20.1432 6.11393 19.2578 5.22852C18.3789 4.3431 17.36 3.65299 16.2012 3.1582C15.0423 2.6569 13.8053 2.40625 12.4902 2.40625C11.1816 2.40625 9.94792 2.6569 8.78906 3.1582C7.63021 3.65299 6.60807 4.3431 5.72266 5.22852C4.84375 6.11393 4.15365 7.13607 3.65234 8.29492C3.15104 9.44727 2.90039 10.681 2.90039 11.9961C2.90039 13.3112 3.15104 14.5482 3.65234 15.707C4.15365 16.8659 4.84375 17.8848 5.72266 18.7637C6.60807 19.6491 7.63021 20.3424 8.78906 20.8438C9.94792 21.3451 11.1849 21.5957 12.5 21.5957ZM12.5195 7.03516C12.7799 7.03516 12.9948 7.11979 13.1641 7.28906C13.3398 7.45182 13.4277 7.66341 13.4277 7.92383V12.3281L13.3398 14.3008L14.1797 13.2363L15.2148 12.1426C15.3711 11.9668 15.5729 11.8789 15.8203 11.8789C16.0677 11.8789 16.2695 11.957 16.4258 12.1133C16.5885 12.263 16.6699 12.4551 16.6699 12.6895C16.6699 12.9238 16.5853 13.1322 16.416 13.3145L13.252 16.5273C13.0306 16.7617 12.7865 16.8789 12.5195 16.8789C12.2461 16.8789 11.9987 16.7617 11.7773 16.5273L8.61328 13.3145C8.45052 13.1387 8.36914 12.9303 8.36914 12.6895C8.36914 12.4551 8.44727 12.263 8.60352 12.1133C8.75977 11.957 8.95833 11.8789 9.19922 11.8789C9.45312 11.8789 9.6582 11.9668 9.81445 12.1426L10.8691 13.2559L11.6895 14.3008L11.5918 12.3281V7.92383C11.5918 7.66341 11.6797 7.45182 11.8555 7.28906C12.0312 7.11979 12.2526 7.03516 12.5195 7.03516Z" fill="#7010DF"/>
</svg>
