<svg width="30" height="31" viewBox="0 0 30 31" fill="none" xmlns="http://www.w3.org/2000/svg">
<g filter="url(#filter0_d_1032_7829)">
<path d="M11.3672 6.77344C11.1816 4.81055 11.3965 3.44336 11.8457 2.30078C12.7539 1.97852 13.7109 1.80273 14.7168 1.77344C14.8242 1.77344 14.9219 1.77344 15.0293 1.7832C13.5156 2.61328 12.6367 4.0293 12.6367 5.65039C12.6367 5.86523 12.6465 6.06055 12.6758 6.25586C12.2266 6.40234 11.7871 6.57812 11.3672 6.77344ZM13.9844 5.875C13.9844 5.80664 13.9746 5.73828 13.9746 5.65039C13.8867 4.06836 15.1758 2.67188 17.4316 2.07617C20.0391 2.7207 22.2559 4.39062 23.6426 6.62695C21.8359 5.85547 19.7656 5.42578 17.6855 5.42578C16.4062 5.42578 15.166 5.58203 13.9844 5.875ZM9.30664 7.87695C9.08203 6.79297 8.44727 5.49414 7.35352 5.25C8.21289 4.2832 9.23828 3.47266 10.4004 2.88672C9.96094 4.16602 9.93164 5.66016 10.127 7.37891C9.85352 7.53516 9.58008 7.70117 9.30664 7.87695ZM4.82422 12.1152C4.82422 11.9883 4.81445 11.8516 4.81445 11.7148C4.86328 9.71289 5.49805 7.85742 6.5625 6.29492C7.63672 6.53906 8.03711 7.84766 8.06641 8.53125C8.06641 8.59961 8.06641 8.67773 8.07617 8.73633C6.83594 9.69336 5.72266 10.8457 4.82422 12.1152ZM24.209 16.2754C22.7637 11.666 16.1035 10.2012 14.3945 7.14453C15.4492 6.89062 16.5527 6.76367 17.6855 6.76367C20.166 6.76367 22.3926 7.35938 24.5605 8.57031C24.9707 9.61523 25.1855 10.7676 25.1855 11.9492C25.1855 13.4922 24.834 14.957 24.209 16.2754ZM13.0566 7.52539C14.9219 11.5391 22.8516 12.9355 23.1836 17.9648C21.9336 19.6641 20.1758 20.9727 18.1348 21.627C14.082 16.9297 12.1777 11.8418 11.543 8.14062C12.0312 7.90625 12.5391 7.69141 13.0566 7.52539ZM9.4043 9.40039C9.7168 9.17578 10.0195 8.9707 10.3418 8.78516C11.0547 12.6035 12.9688 17.4766 16.6895 21.998C16.1426 22.0859 15.5762 22.1348 15 22.1348C13.8281 22.1348 12.7051 21.9199 11.6797 21.5391C7.46094 18.3555 9.36523 13.8145 9.4043 9.40039ZM7.99805 10.5527C7.80273 13.5215 7.08984 16.9297 8.37891 19.6445C6.74805 18.2285 5.56641 16.3145 5.08789 14.1562C5.87891 12.7988 6.89453 11.5879 7.99805 10.5527Z" fill="#0A0019"/>
</g>
<defs>
<filter id="filter0_d_1032_7829" x="-1" y="0" width="32" height="32" filterUnits="userSpaceOnUse" color-interpolation-filters="sRGB">
<feFlood flood-opacity="0" result="BackgroundImageFix"/>
<feColorMatrix in="SourceAlpha" type="matrix" values="0 0 0 0 0 0 0 0 0 0 0 0 0 0 0 0 0 0 127 0" result="hardAlpha"/>
<feOffset dy="4"/>
<feGaussianBlur stdDeviation="2"/>
<feComposite in2="hardAlpha" operator="out"/>
<feColorMatrix type="matrix" values="0 0 0 0 0 0 0 0 0 0 0 0 0 0 0 0 0 0 0.25 0"/>
<feBlend mode="normal" in2="BackgroundImageFix" result="effect1_dropShadow_1032_7829"/>
<feBlend mode="normal" in="SourceGraphic" in2="effect1_dropShadow_1032_7829" result="shape"/>
</filter>
</defs>
</svg>
