<svg width="48" height="48" viewBox="0 0 48 48" fill="none" xmlns="http://www.w3.org/2000/svg">
<path d="M28.5635 28.3447H27.8369V9.21191H28.5635C31.0459 9.21191 32.3325 10.4683 32.3325 12.875V24.6816C32.3325 27.0884 31.0459 28.3447 28.5635 28.3447ZM14.9858 8.01611V9.21191H21.7822V8.01611C21.7822 7.45605 21.4795 7.16846 20.8589 7.16846H15.9092C15.2886 7.16846 14.9858 7.45605 14.9858 8.01611ZM6.43359 34.7324C5.31348 34.7324 4.43555 33.9302 4.43555 32.7798C4.43555 31.6445 5.31348 30.8271 6.43359 30.8271H33.2861C34.3457 30.8271 34.9058 30.252 34.9058 29.1924V13.4653C34.9058 10.3018 36.5708 8.65186 39.7495 8.65186H41.6113C42.686 8.65186 43.564 9.52979 43.564 10.6045C43.564 11.6792 42.686 12.5571 41.6113 12.5571H40.4307C39.3862 12.5571 38.811 13.1323 38.811 14.1919V29.9341C38.811 33.0825 37.146 34.7324 33.9673 34.7324H6.43359ZM11.7314 43.2998C10.0361 43.2998 8.61328 41.877 8.61328 40.1816C8.61328 38.4561 10.0361 37.0332 11.7314 37.0332C13.4419 37.0332 14.8647 38.4561 14.8647 40.1816C14.8647 41.877 13.4419 43.2998 11.7314 43.2998ZM27.9731 43.2998C26.2627 43.2998 24.8398 41.877 24.8398 40.1816C24.8398 38.4561 26.2627 37.0332 27.9731 37.0332C29.6685 37.0332 31.0913 38.4561 31.0913 40.1816C31.0913 41.877 29.6685 43.2998 27.9731 43.2998ZM25.3848 28.3447H11.3984V9.21191H12.1855V8.06152C12.1855 5.88184 13.457 4.70117 15.8184 4.70117H20.9497C23.3413 4.70117 24.5825 5.83643 24.5825 8.06152V9.21191H25.3848V28.3447ZM8.93115 28.3447H8.21973C5.72217 28.3447 4.43555 27.0884 4.43555 24.6816V12.875C4.43555 10.4683 5.72217 9.21191 8.21973 9.21191H8.93115V28.3447Z" fill="#0A0019"/>
</svg>
