<svg width="24" height="24" viewBox="0 0 24 24" fill="none" xmlns="http://www.w3.org/2000/svg">
<circle cx="12" cy="12" r="11" fill="#7EDF10" stroke="#E6E9FF" stroke-width="2"/>
<path d="M11.9941 6.66211C12.5039 6.66211 12.8438 7.01367 12.8438 7.54102V14.0449L12.791 15.3164L13.9688 13.957L15.2871 12.6445C15.4453 12.4863 15.6445 12.3809 15.8965 12.3809C16.3535 12.3809 16.6992 12.7207 16.6992 13.2012C16.6992 13.4238 16.6113 13.6289 16.4355 13.8105L12.6211 17.625C12.4629 17.7891 12.2285 17.8828 11.9941 17.8828C11.7656 17.8828 11.5254 17.7891 11.3672 17.625L7.55859 13.8105C7.38281 13.6289 7.29492 13.4238 7.29492 13.2012C7.29492 12.7207 7.64062 12.3809 8.09766 12.3809C8.35547 12.3809 8.55469 12.4863 8.70703 12.6445L10.0254 13.957L11.2031 15.3164L11.1445 14.0449V7.54102C11.1445 7.01367 11.4902 6.66211 11.9941 6.66211Z" fill="#0A0019"/>
</svg>
