<svg width="24" height="24" viewBox="0 0 24 24" fill="none" xmlns="http://www.w3.org/2000/svg">
<path d="M8.20833 20.7057H15.7832C16.4039 20.7057 16.8722 20.5421 17.1882 20.2148C17.5041 19.8876 17.6621 19.3882 17.6621 18.7168V12.9785C17.6621 12.3184 17.5041 11.8247 17.1882 11.4974C16.8722 11.1645 16.4039 10.998 15.7832 10.998H8.20833C7.59332 10.998 7.12782 11.1645 6.81185 11.4974C6.49588 11.8247 6.33789 12.3184 6.33789 12.9785V18.7168C6.33789 19.3882 6.49588 19.8876 6.81185 20.2148C7.12782 20.5421 7.59332 20.7057 8.20833 20.7057ZM8.52995 19.1738C8.36068 19.1738 8.2309 19.123 8.14062 19.0215C8.05599 18.9256 8.01367 18.7845 8.01367 18.5983V13.097C8.01367 12.9108 8.05599 12.7726 8.14062 12.6823C8.2309 12.5864 8.36068 12.5384 8.52995 12.5384H15.4785C15.6478 12.5384 15.7747 12.5864 15.8594 12.6823C15.944 12.7726 15.9863 12.9108 15.9863 13.097V18.5983C15.9863 18.7845 15.944 18.9256 15.8594 19.0215C15.7747 19.123 15.6478 19.1738 15.4785 19.1738H8.52995ZM7.82747 11.6921H9.42708V9.00065C9.42708 8.40256 9.54275 7.89475 9.77409 7.47721C10.0111 7.05404 10.3242 6.73524 10.7135 6.52083C11.1029 6.30078 11.5317 6.19076 12 6.19076C12.4683 6.19076 12.8971 6.30078 13.2865 6.52083C13.6758 6.73524 13.9861 7.05404 14.2174 7.47721C14.4544 7.89475 14.5729 8.40256 14.5729 9.00065V11.6921H16.1725V9.13607C16.1725 8.15994 15.9779 7.33898 15.5885 6.67318C15.2049 6.00738 14.6942 5.50521 14.0566 5.16667C13.4247 4.82248 12.7391 4.65039 12 4.65039C11.2609 4.65039 10.5725 4.82248 9.9349 5.16667C9.30295 5.50521 8.79514 6.00738 8.41146 6.67318C8.02778 7.33898 7.83594 8.15994 7.83594 9.13607L7.82747 11.6921Z" fill="#0A0019"/>
</svg>
