<svg width="32" height="32" viewBox="0 0 32 32" fill="none" xmlns="http://www.w3.org/2000/svg">
<path d="M5.97461 23.8921C5.43179 23.5762 5.02264 23.2237 4.74718 22.8349C4.47172 22.446 4.33398 21.8383 4.33398 21.0119V11.8123C4.33398 11.2127 4.44741 10.7145 4.67426 10.3175C4.90922 9.9124 5.27785 9.56402 5.78016 9.27235L13.8861 4.69076C14.5909 4.30187 15.2917 4.10742 15.9885 4.10742C16.6934 4.10742 17.3982 4.30187 18.1031 4.69076L26.209 9.27235C26.7113 9.56402 27.0759 9.9124 27.3027 10.3175C27.5377 10.7145 27.6552 11.2127 27.6552 11.8123V21.0119C27.6552 21.8383 27.5174 22.446 27.242 22.8349C26.9746 23.2237 26.5695 23.5762 26.0267 23.8921L16.9607 28.9963C16.6285 29.1827 16.3045 29.2758 15.9885 29.2758C15.6806 29.2758 15.3647 29.1827 15.0406 28.9963L5.97461 23.8921ZM7.10482 22.2394L15.0041 26.7237V17.3539L6.24197 12.3713V20.8783C6.24197 21.1942 6.30679 21.4575 6.43641 21.6682C6.56604 21.8707 6.78885 22.0611 7.10482 22.2394ZM24.8843 22.2394C25.2084 22.0611 25.4353 21.8707 25.5649 21.6682C25.6945 21.4575 25.7593 21.1942 25.7593 20.8783V12.3713L16.985 17.3539V26.7237L24.8843 22.2394ZM15.9885 15.5918L19.3791 13.6838L10.702 8.77409L7.32357 10.7064L15.9885 15.5918ZM21.3965 12.5536L24.6656 10.7064L17.2645 6.50152C16.43 6.01541 15.5834 6.01541 14.7246 6.50152L12.6951 7.65603L21.3965 12.5536Z" fill="#0A0019"/>
</svg>
