<svg width="24" height="25" viewBox="0 0 24 25" fill="none" xmlns="http://www.w3.org/2000/svg">
<path d="M8.2207 5.67676C8.2207 3.58496 9.9082 1.87109 12.0088 1.87109C14.1094 1.87109 15.7881 3.58496 15.7881 5.67676C15.7881 7.38184 14.6631 8.84082 13.0986 9.29785V14.791C13.0986 16.8301 12.4395 18.4121 12.0088 18.4121C11.5781 18.4121 10.9014 16.8301 10.9014 14.791V9.29785C9.3457 8.82324 8.2207 7.38184 8.2207 5.67676ZM10.9365 5.89648C11.6572 5.89648 12.2373 5.29004 12.2373 4.5957C12.2373 3.89258 11.6572 3.30371 10.9365 3.30371C10.251 3.30371 9.64453 3.89258 9.64453 4.5957C9.64453 5.29004 10.251 5.89648 10.9365 5.89648ZM11.9912 22.2441C5.95312 22.2441 2.16504 20.2842 2.16504 17.7793C2.16504 15.3359 5.70703 13.6572 9.30176 13.3936V15.3887C6.94629 15.5732 4.5293 16.4609 4.5293 17.6562C4.5293 19.1768 7.64062 20.1875 11.9912 20.1875C16.3418 20.1875 19.4619 19.168 19.4619 17.6562C19.4619 16.4609 17.0449 15.5732 14.6895 15.3887V13.3936C18.2842 13.6572 21.8262 15.3359 21.8262 17.7793C21.8262 20.2842 18.0293 22.2441 11.9912 22.2441Z" fill="#0A0019"/>
</svg>
