<svg width="18" height="18" viewBox="0 0 18 18" fill="none" xmlns="http://www.w3.org/2000/svg">
<path d="M6.71885 14C6.62939 14 6.54739 13.9851 6.47284 13.9552C6.3983 13.9253 6.32375 13.8729 6.2492 13.7982L2.20128 9.73991C2.06709 9.60538 2 9.44096 2 9.24664C2 9.05232 2.06709 8.88789 2.20128 8.75336C2.33546 8.61883 2.49201 8.55157 2.67093 8.55157C2.84984 8.55157 3.00639 8.61883 3.14058 8.75336L6.71885 12.3408L14.8371 4.20179C14.9712 4.06726 15.1315 4 15.3179 4C15.5043 4 15.6645 4.06726 15.7987 4.20179C15.9329 4.33632 16 4.49701 16 4.68386C16 4.8707 15.9329 5.03139 15.7987 5.16592L7.1885 13.7982C7.11395 13.8729 7.0394 13.9253 6.96486 13.9552C6.89031 13.9851 6.80831 14 6.71885 14Z" fill="#7010DF"/>
</svg>
