<svg width="32" height="32" viewBox="0 0 32 32" fill="none" xmlns="http://www.w3.org/2000/svg">
<path d="M2.24414 27.2389V5.8763C2.24414 5.09701 2.82552 4.47852 3.62956 4.47852C4.42122 4.47852 5.0026 5.09701 5.0026 5.8763V16.3906L8.47852 12.8405C9.10938 12.1973 9.69076 11.9375 10.334 11.9375C10.9896 11.9375 11.5957 12.2096 12.2018 12.8405L16.5065 17.3431C16.6178 17.4544 16.7415 17.5039 16.8405 17.5039C16.9395 17.5039 17.0508 17.4421 17.1497 17.3431L21.9121 12.4818L20.069 10.6263C19.4753 10.0326 19.8216 9.20378 20.6628 8.98112L27.9486 7.11328C28.7155 6.91536 29.3958 7.58333 29.1979 8.35026L27.3177 15.6608C27.0951 16.4896 26.2539 16.8359 25.6602 16.2422L23.7923 14.362L18.6836 19.4954C18.0775 20.1139 17.4714 20.3984 16.8281 20.3984C16.1849 20.3984 15.5664 20.1139 14.9727 19.4954L10.6556 15.0052C10.5566 14.8939 10.4329 14.832 10.334 14.832C10.235 14.832 10.1237 14.8939 10.0124 15.0052L5.0026 20.1882V25.2598C5.0026 25.5072 5.10156 25.5937 5.33659 25.5937H28.2702C29.0495 25.5937 29.668 26.1751 29.668 26.9792C29.668 27.7708 29.0495 28.3522 28.2702 28.3522H3.35742C2.68945 28.3522 2.24414 27.9069 2.24414 27.2389Z" fill="#0A0019"/>
</svg>
