<svg width="358" height="416" viewBox="0 0 358 416" fill="none" xmlns="http://www.w3.org/2000/svg">
<path fill-rule="evenodd" clip-rule="evenodd" d="M0 9.99999C0 4.47714 4.47715 0 10 0H348C353.523 0 358 4.47715 358 10V73.0094C354.143 73.1999 351.076 76.2569 351.076 80C351.076 83.7431 354.143 86.8001 358 86.9906V406C358 411.523 353.523 416 348 416H342.688C342.688 412.134 339.417 409 335.382 409C331.347 409 328.076 412.134 328.076 416H318.683C318.683 412.134 315.411 409 311.376 409C307.341 409 304.07 412.134 304.07 416H294.677C294.677 412.134 291.406 409 287.371 409C283.336 409 280.064 412.134 280.064 416H270.671C270.671 412.134 267.4 409 263.365 409C259.33 409 256.059 412.134 256.059 416H246.665C246.665 412.134 243.394 409 239.359 409C235.324 409 232.053 412.134 232.053 416H222.659C222.659 412.134 219.388 409 215.353 409C211.318 409 208.047 412.134 208.047 416H198.653C198.653 412.134 195.382 409 191.347 409C187.312 409 184.041 412.134 184.041 416H174.647C174.647 412.134 171.376 409 167.341 409C163.306 409 160.035 412.134 160.035 416H150.642C150.642 412.134 147.37 409 143.335 409C139.3 409 136.029 412.134 136.029 416H126.636C126.636 412.134 123.365 409 119.33 409C115.295 409 112.023 412.134 112.023 416H102.63C102.63 412.134 99.3588 409 95.3237 409C91.2886 409 88.0176 412.134 88.0176 416H78.624C78.624 412.134 75.3529 409 71.3178 409C67.2828 409 64.0117 412.134 64.0117 416H54.6181C54.6181 412.134 51.347 409 47.312 409C43.2769 409 40.0059 412.134 40.0059 416H30.6122C30.6122 412.134 27.3412 409 23.3061 409C19.2711 409 16 412.134 16 416H9.99999C4.47715 416 0 411.523 0 406V86.9906C0.126605 86.9968 0.254063 87 0.382292 87C4.41735 87 7.68841 83.866 7.68841 80C7.68841 76.134 4.41735 73 0.382292 73C0.254063 73 0.126605 73.0032 0 73.0094V9.99999Z" fill="white"/>
</svg>
