<svg width="24" height="24" viewBox="0 0 24 24" fill="none" xmlns="http://www.w3.org/2000/svg">
<path d="M15.5976 9.52045V15.9197H9.19995C9.05042 15.9223 8.90193 15.8949 8.76349 15.8393C8.62506 15.7837 8.49958 15.701 8.39471 15.5962C8.28984 15.4914 8.20776 15.3667 8.15348 15.2297C8.09919 15.0927 8.07384 14.9463 8.07896 14.7994V9.52045C8.07384 9.37353 8.09919 9.22712 8.15348 9.09014C8.20776 8.95316 8.28984 8.82848 8.39471 8.72367C8.49958 8.61886 8.62506 8.53613 8.76349 8.4805C8.90193 8.42488 9.05042 8.39753 9.19995 8.40012H14.3171C14.4802 8.36721 14.6489 8.37218 14.8096 8.41463C14.9704 8.45708 15.1189 8.53584 15.2432 8.64464C15.3676 8.75343 15.4643 8.88926 15.5259 9.04131C15.5874 9.19336 15.612 9.35742 15.5976 9.52045Z" fill="#0A0019"/>
<path d="M16.7185 18.9571H7.11735C6.56439 18.9428 6.0387 18.718 5.65108 18.3301C5.26345 17.9422 5.0442 17.4215 5.03953 16.8778V7.27893C5.0442 6.73523 5.26345 6.21454 5.65108 5.82665C6.0387 5.43875 6.56439 5.21395 7.11735 5.19963H16.7185C17.2715 5.21395 17.7972 5.43875 18.1848 5.82665C18.5725 6.21454 18.7917 6.73523 18.7964 7.27893V16.8778L21.9999 20.0775V5.03827C22.003 4.6423 21.9267 4.24961 21.7754 3.88263C21.6241 3.51564 21.4007 3.18154 21.1181 2.89941C20.8354 2.61728 20.499 2.39264 20.128 2.23832C19.757 2.084 19.3587 2.00302 18.9559 2H5.03953C4.63691 2.00301 4.23886 2.08403 3.86812 2.23841C3.49739 2.39278 3.16126 2.6175 2.87896 2.89969C2.59667 3.18188 2.37375 3.51602 2.22296 3.88298C2.07217 4.24994 1.99647 4.64252 2.00018 5.03827V18.9571C1.99584 19.3533 2.07109 19.7463 2.2216 20.1138C2.37211 20.4813 2.59493 20.816 2.87729 21.0987C3.15964 21.3814 3.49598 21.6065 3.86702 21.7612C4.23806 21.9158 4.63652 21.997 5.03953 22H19.9174L16.7185 18.9571Z" fill="#0A0019"/>
</svg>
