<svg width="44" height="44" viewBox="0 0 44 44" fill="none" xmlns="http://www.w3.org/2000/svg">
<path d="M15.3984 23.5977C14.335 23.5977 13.4648 22.7188 13.4648 21.6641C13.4648 20.5918 14.335 19.7305 15.3984 19.7305C16.4971 19.7305 17.3496 20.583 17.3496 21.6641C17.3496 22.7188 16.4619 23.5977 15.3984 23.5977ZM21.999 23.5977C20.9355 23.5977 20.0654 22.7188 20.0654 21.6641C20.0654 20.5918 20.9355 19.7305 21.999 19.7305C23.0801 19.7305 23.9238 20.583 23.9238 21.6641C23.9238 22.7188 23.0449 23.5977 21.999 23.5977ZM28.5908 23.5977C27.5186 23.5977 26.6484 22.7188 26.6484 21.6641C26.6484 20.5918 27.5186 19.7305 28.5908 19.7305C29.6807 19.7305 30.5244 20.583 30.5244 21.6641C30.5244 22.7188 29.6455 23.5977 28.5908 23.5977Z" fill="#0A0019"/>
</svg>
