<svg width="64" height="64" viewBox="0 0 64 64" fill="none" xmlns="http://www.w3.org/2000/svg">
<path d="M31.9983 56.5521C35.0376 56.5521 37.8889 55.9728 40.5521 54.8142C43.2303 53.6557 45.5926 52.0532 47.6389 50.0069C49.6852 47.9757 51.2876 45.6209 52.4462 42.9427C53.6047 40.2645 54.184 37.4057 54.184 34.3663C54.184 31.327 53.5972 28.4757 52.4236 25.8125C51.265 23.1343 49.6626 20.772 47.6163 18.7257C45.5851 16.6794 43.2303 15.0845 40.5521 13.941C37.8738 12.7824 35.015 12.2031 31.9757 12.2031C28.9514 12.2031 26.1001 12.7824 23.4219 13.941C20.7436 15.0845 18.3814 16.6794 16.3351 18.7257C14.3038 20.772 12.7089 23.1343 11.5503 25.8125C10.3918 28.4757 9.8125 31.327 9.8125 34.3663C9.8125 37.4057 10.3918 40.2645 11.5503 42.9427C12.7089 45.6209 14.3038 47.9757 16.3351 50.0069C18.3814 52.0532 20.7436 53.6557 23.4219 54.8142C26.1001 55.9728 28.9589 56.5521 31.9983 56.5521ZM29.651 44.9288C29.2147 44.9288 28.8235 44.8385 28.4774 44.658C28.1314 44.4624 27.8003 44.1765 27.4844 43.8003L22.316 37.5035C21.9097 37.0069 21.7066 36.4803 21.7066 35.9236C21.7066 35.3519 21.9022 34.8628 22.2934 34.4566C22.6997 34.0503 23.1887 33.8472 23.7604 33.8472C24.1065 33.8472 24.4225 33.9225 24.7083 34.0729C24.9942 34.2234 25.2726 34.4716 25.5434 34.8177L29.5833 39.8733L38.2726 25.9705C38.754 25.1881 39.3559 24.7969 40.0781 24.7969C40.6348 24.7969 41.1314 24.9774 41.5677 25.3385C42.004 25.6997 42.2222 26.1736 42.2222 26.7604C42.2222 27.0162 42.1696 27.2795 42.0642 27.5503C41.9589 27.8061 41.8235 28.0544 41.658 28.2951L31.6823 43.7552C31.1707 44.5376 30.4936 44.9288 29.651 44.9288Z" fill="#00BD4E"/>
</svg>
