<svg width="21" height="21" viewBox="0 0 21 21" fill="none" xmlns="http://www.w3.org/2000/svg">
<path d="M17.75 13.9326C17.75 14.6709 17.1875 15.2422 16.502 15.2422C15.8164 15.2422 15.2891 14.6709 15.2891 13.9502V10.5928L15.4121 7.79785L14.041 9.33594L6.2627 17.1055C5.98145 17.3779 5.65625 17.5273 5.32227 17.5273C4.64551 17.5273 4.03027 16.9033 4.03027 16.2354C4.03027 15.9014 4.18848 15.5762 4.46094 15.2949L12.2217 7.5166L13.7598 6.1543L10.8682 6.25977H7.60742C6.88672 6.25977 6.31543 5.73242 6.31543 5.05566C6.31543 4.37012 6.86914 3.80762 7.61621 3.80762H16.4229C17.2227 3.80762 17.7588 4.34375 17.7588 5.13477L17.75 13.9326Z" fill="#EC002A"/>
</svg>
