<svg width="64" height="59" viewBox="0 0 64 59" fill="none" xmlns="http://www.w3.org/2000/svg">
<g clip-path="url(#clip0_1595_12251)">
<path d="M27.0182 48.9993C29.0044 48.9993 30.6145 47.3747 30.6145 45.3707C30.6145 43.3667 29.0044 41.7422 27.0182 41.7422C25.032 41.7422 23.4219 43.3667 23.4219 45.3707C23.4219 47.3747 25.032 48.9993 27.0182 48.9993Z" fill="white"/>
<path d="M37.0358 48.9993C39.022 48.9993 40.6321 47.3747 40.6321 45.3707C40.6321 43.3667 39.022 41.7422 37.0358 41.7422C35.0496 41.7422 33.4395 43.3667 33.4395 45.3707C33.4395 47.3747 35.0496 48.9993 37.0358 48.9993Z" fill="white"/>
<path d="M44.9997 17.1504H27.1247C21.9034 17.1504 18.0407 22.0422 19.2128 27.1759L22.0899 39.8623H29.762L25.9526 23.628H44.9997V17.1773V17.1504Z" fill="white"/>
<path d="M38.0202 10H40.8706V39.8346H33.1719V14.8918C33.1719 12.1771 35.3563 10 38.0202 10Z" fill="white"/>
</g>
<defs>
<clipPath id="clip0_1595_12251">
<rect width="26" height="39" fill="white" transform="translate(19 10)"/>
</clipPath>
</defs>
</svg>
