<svg width="171" height="150" viewBox="0 0 171 150" fill="none" xmlns="http://www.w3.org/2000/svg">
<g opacity="0.5">
<path d="M72.9406 81.7741H97.5582C99.4082 81.7741 100.811 81.2967 101.766 80.3418C102.732 79.3989 103.216 78.0084 103.216 76.1702V58.75C103.216 56.9119 102.732 55.5214 101.766 54.5785C100.811 53.6236 99.4082 53.1462 97.5582 53.1462H72.9406C71.0787 53.1462 69.6702 53.6176 68.7154 54.5605C67.7605 55.5035 67.2831 56.9 67.2831 58.75V76.1702C67.2831 78.0084 67.7605 79.3989 68.7154 80.3418C69.6702 81.2967 71.0787 81.7741 72.9406 81.7741ZM73.2092 78.1934C72.4572 78.1934 71.8784 77.9964 71.4725 77.6025C71.0787 77.2206 70.8817 76.6298 70.8817 75.8301V59.0902C70.8817 58.2905 71.0787 57.6997 71.4725 57.3177C71.8784 56.9238 72.4572 56.7269 73.2092 56.7269H97.2717C98.0236 56.7269 98.6025 56.9238 99.0083 57.3177C99.4142 57.6997 99.6171 58.2905 99.6171 59.0902V75.8301C99.6171 76.6298 99.4142 77.2206 99.0083 77.6025C98.6025 77.9964 98.0236 78.1934 97.2717 78.1934H73.2092ZM71.0787 50.3532H99.438C99.3187 49.5416 99.0322 48.909 98.5787 48.4554C98.1251 48.0018 97.4328 47.7751 96.5018 47.7751H73.997C73.066 47.7751 72.3737 48.0018 71.9201 48.4554C71.4785 48.909 71.198 49.5416 71.0787 50.3532ZM74.5162 45.3939H96.0005C95.9409 44.63 95.6842 44.0451 95.2307 43.6393C94.7771 43.2335 94.1386 43.0306 93.315 43.0306H77.2017C76.3781 43.0306 75.7396 43.2335 75.286 43.6393C74.8325 44.0451 74.5758 44.63 74.5162 45.3939Z" fill="#D9D9D9"/>
<path d="M64.9407 99.242V109.424H63.5288L58.3533 101.956H58.2589V109.424H56.7227V99.242H58.1445L63.3249 106.719H63.4194V99.242H64.9407Z" fill="#0A0019"/>
<path d="M70.2789 109.578C69.563 109.578 68.9383 109.414 68.4047 109.086C67.871 108.758 67.4567 108.299 67.1618 107.709C66.8668 107.119 66.7193 106.429 66.7193 105.64C66.7193 104.848 66.8668 104.156 67.1618 103.562C67.4567 102.969 67.871 102.508 68.4047 102.18C68.9383 101.852 69.563 101.688 70.2789 101.688C70.9949 101.688 71.6196 101.852 72.1532 102.18C72.6868 102.508 73.1011 102.969 73.3961 103.562C73.6911 104.156 73.8386 104.848 73.8386 105.64C73.8386 106.429 73.6911 107.119 73.3961 107.709C73.1011 108.299 72.6868 108.758 72.1532 109.086C71.6196 109.414 70.9949 109.578 70.2789 109.578ZM70.2839 108.33C70.7479 108.33 71.1324 108.207 71.4373 107.962C71.7422 107.717 71.9676 107.39 72.1135 106.983C72.2626 106.575 72.3372 106.126 72.3372 105.635C72.3372 105.148 72.2626 104.701 72.1135 104.293C71.9676 103.882 71.7422 103.552 71.4373 103.304C71.1324 103.055 70.7479 102.931 70.2839 102.931C69.8166 102.931 69.4288 103.055 69.1206 103.304C68.8156 103.552 68.5886 103.882 68.4395 104.293C68.2936 104.701 68.2207 105.148 68.2207 105.635C68.2207 106.126 68.2936 106.575 68.4395 106.983C68.5886 107.39 68.8156 107.717 69.1206 107.962C69.4288 108.207 69.8166 108.33 70.2839 108.33Z" fill="#0A0019"/>
<path d="M79.2029 109.424V101.787H80.6895V109.424H79.2029ZM79.9537 100.609C79.6951 100.609 79.4731 100.523 79.2875 100.351C79.1052 100.175 79.014 99.9662 79.014 99.7243C79.014 99.479 79.1052 99.2702 79.2875 99.0978C79.4731 98.9222 79.6951 98.8343 79.9537 98.8343C80.2122 98.8343 80.4326 98.9222 80.6149 99.0978C80.8005 99.2702 80.8933 99.479 80.8933 99.7243C80.8933 99.9662 80.8005 100.175 80.6149 100.351C80.4326 100.523 80.2122 100.609 79.9537 100.609Z" fill="#0A0019"/>
<path d="M86.2539 101.787V102.981H82.0827V101.787H86.2539ZM83.2013 99.9579H84.6879V107.182C84.6879 107.47 84.7309 107.687 84.8171 107.833C84.9033 107.975 85.0143 108.073 85.1502 108.126C85.2894 108.176 85.4402 108.201 85.6026 108.201C85.7219 108.201 85.8263 108.193 85.9158 108.176C86.0053 108.159 86.0749 108.146 86.1246 108.136L86.3931 109.364C86.3069 109.397 86.1843 109.43 86.0252 109.464C85.8661 109.5 85.6673 109.52 85.4286 109.523C85.0375 109.53 84.6729 109.46 84.3349 109.314C83.9968 109.169 83.7234 108.943 83.5146 108.638C83.3058 108.333 83.2013 107.951 83.2013 107.49V99.9579Z" fill="#0A0019"/>
<path d="M91.1074 109.578C90.3551 109.578 89.7071 109.417 89.1635 109.096C88.6233 108.771 88.2057 108.315 87.9107 107.729C87.619 107.139 87.4732 106.448 87.4732 105.655C87.4732 104.873 87.619 104.184 87.9107 103.587C88.2057 102.991 88.6167 102.525 89.1436 102.19C89.6739 101.855 90.2937 101.688 91.003 101.688C91.4339 101.688 91.8515 101.759 92.2559 101.902C92.6602 102.044 93.0231 102.268 93.3446 102.573C93.6661 102.878 93.9197 103.274 94.1053 103.761C94.2909 104.245 94.3837 104.833 94.3837 105.526V106.053H88.3134V104.939H92.927C92.927 104.548 92.8475 104.202 92.6884 103.9C92.5293 103.595 92.3056 103.355 92.0172 103.18C91.7322 103.004 91.3974 102.916 91.013 102.916C90.5953 102.916 90.2308 103.019 89.9192 103.224C89.611 103.426 89.3723 103.692 89.2033 104.02C89.0376 104.345 88.9547 104.698 88.9547 105.079V105.949C88.9547 106.459 89.0442 106.893 89.2232 107.251C89.4055 107.609 89.659 107.883 89.9838 108.072C90.3087 108.257 90.6882 108.35 91.1223 108.35C91.4041 108.35 91.6609 108.31 91.8929 108.231C92.1249 108.148 92.3255 108.025 92.4945 107.863C92.6635 107.7 92.7928 107.5 92.8823 107.261L94.2892 107.515C94.1766 107.929 93.9744 108.292 93.6827 108.604C93.3944 108.912 93.0314 109.152 92.5939 109.324C92.1597 109.493 91.6642 109.578 91.1074 109.578Z" fill="#0A0019"/>
<path d="M96.033 109.424V101.787H97.4599V103.03H97.5543C97.7134 102.609 97.9736 102.281 98.3349 102.046C98.6961 101.807 99.1287 101.688 99.6325 101.688C100.143 101.688 100.57 101.807 100.915 102.046C101.263 102.285 101.52 102.613 101.686 103.03H101.765C101.948 102.623 102.238 102.298 102.635 102.056C103.033 101.811 103.507 101.688 104.057 101.688C104.75 101.688 105.315 101.905 105.752 102.339C106.193 102.773 106.414 103.428 106.414 104.303V109.424H104.927V104.442C104.927 103.925 104.786 103.551 104.505 103.319C104.223 103.087 103.886 102.971 103.495 102.971C103.011 102.971 102.635 103.12 102.367 103.418C102.098 103.713 101.964 104.093 101.964 104.557V109.424H100.483V104.348C100.483 103.934 100.353 103.6 100.095 103.349C99.8363 103.097 99.4999 102.971 99.0856 102.971C98.8039 102.971 98.5437 103.045 98.305 103.194C98.0697 103.34 97.8791 103.544 97.7333 103.806C97.5908 104.068 97.5195 104.371 97.5195 104.716V109.424H96.033Z" fill="#0A0019"/>
<path d="M114.128 103.652L112.781 103.89C112.725 103.718 112.635 103.554 112.513 103.398C112.393 103.242 112.231 103.115 112.025 103.015C111.82 102.916 111.563 102.866 111.255 102.866C110.834 102.866 110.483 102.961 110.201 103.15C109.919 103.335 109.778 103.576 109.778 103.871C109.778 104.126 109.873 104.331 110.062 104.487C110.251 104.643 110.555 104.77 110.976 104.87L112.189 105.148C112.892 105.311 113.416 105.561 113.76 105.899C114.105 106.237 114.278 106.676 114.278 107.216C114.278 107.674 114.145 108.081 113.88 108.439C113.618 108.794 113.252 109.073 112.781 109.275C112.314 109.477 111.772 109.578 111.155 109.578C110.3 109.578 109.603 109.396 109.062 109.031C108.522 108.663 108.191 108.141 108.068 107.465L109.505 107.246C109.594 107.621 109.778 107.904 110.057 108.096C110.335 108.285 110.698 108.38 111.145 108.38C111.633 108.38 112.022 108.279 112.314 108.077C112.605 107.871 112.751 107.621 112.751 107.326C112.751 107.087 112.662 106.887 112.483 106.724C112.307 106.562 112.037 106.439 111.672 106.356L110.38 106.073C109.667 105.911 109.14 105.652 108.799 105.297C108.461 104.943 108.292 104.494 108.292 103.95C108.292 103.499 108.418 103.105 108.67 102.767C108.921 102.429 109.269 102.165 109.714 101.976C110.158 101.784 110.666 101.688 111.24 101.688C112.065 101.688 112.715 101.867 113.189 102.225C113.663 102.58 113.976 103.055 114.128 103.652Z" fill="#0A0019"/>
</g>
<path d="M171 149H0V151H171V149Z" fill="#1C0243" fill-opacity="0.1" mask="url(#path-1-inside-1_1497_6192)"/>
</svg>
