<svg width="24" height="24" viewBox="0 0 24 24" fill="none" xmlns="http://www.w3.org/2000/svg">
<path d="M0 0H23.9496V23.9496H0V0Z" fill="#008CCE"/>
<path d="M0 0L6.02506 5.97485L11.9999 0H0Z" fill="#008CCE"/>
<path d="M0 0V11.9999L6.02506 5.97485L0 0Z" fill="#0098D6"/>
<path d="M11.9999 11.9997L6.02506 5.97461L0 11.9997H11.9999Z" fill="#008CCE"/>
<path d="M12.0002 11.9999V0L6.02539 5.97485L12.0002 11.9999Z" fill="#007AC5"/>
<path d="M12 0V11.9999L17.9748 5.97485L12 0Z" fill="#0067B5"/>
<path d="M23.9999 11.9997L17.9748 5.97461L12 11.9997H23.9999Z" fill="#004293"/>
<path d="M0 12L6.02506 17.9748L11.9999 12H0Z" fill="#007AC5"/>
<path d="M0 12V23.9497L6.02506 17.9748L0 12Z" fill="#0067B5"/>
<path d="M11.9999 23.9495L6.02506 17.9746L0 23.9495H11.9999Z" fill="#0055A6"/>
<path d="M12.0002 23.9497V12L6.02539 17.9748L12.0002 23.9497Z" fill="#004898"/>
<path d="M12 12L17.9748 17.9748L23.9999 12H12Z" fill="#0B2C85"/>
<path d="M12 12V23.9497L17.9748 17.9748L12 12Z" fill="#004293"/>
<path d="M23.9999 23.9497L17.9748 17.9748L12 23.9497H23.9999ZM23.9999 23.9497V12L17.9748 17.9748L23.9999 23.9497Z" fill="#0B2C85"/>
<path d="M12 0L17.9748 5.97485L23.9999 0H12Z" fill="#0055A6"/>
<path d="M23.9997 11.9999V0L17.9746 5.97485L23.9997 11.9999Z" fill="#004898"/>
<path d="M24.0003 14.9619L16.3184 7.68164L4.66992 19.3301L8.88746 23.5978L16.3184 16.3176L24.0003 23.9493V14.9619Z" fill="white"/>
</svg>
