<svg width="32" height="32" viewBox="0 0 32 32" fill="none" xmlns="http://www.w3.org/2000/svg">
<path d="M16.0007 30.6673C18.0099 30.6673 19.8949 30.2842 21.6554 29.5179C23.426 28.7516 24.9877 27.6917 26.3404 26.3382C27.6932 24.9947 28.7525 23.4372 29.5185 21.6658C30.2844 19.8943 30.6673 18.0035 30.6673 15.9932C30.6673 13.9829 30.2794 12.097 29.5035 10.3355C28.7376 8.56407 27.6783 7.00161 26.3255 5.64815C24.9827 4.29469 23.426 3.23978 21.6554 2.48343C19.8849 1.71713 17.995 1.33398 15.9857 1.33398C13.9864 1.33398 12.1015 1.71713 10.3309 2.48343C8.56039 3.23978 6.99873 4.29469 5.64595 5.64815C4.30313 7.00161 3.24876 8.56407 2.48285 10.3355C1.71694 12.097 1.33398 13.9829 1.33398 15.9932C1.33398 18.0035 1.71694 19.8943 2.48285 21.6658C3.24876 23.4372 4.30313 24.9947 5.64595 26.3382C6.99873 27.6917 8.56039 28.7516 10.3309 29.5179C12.1015 30.2842 13.9914 30.6673 16.0007 30.6673ZM8.97318 22.8152C8.03818 21.8798 7.60549 20.8597 7.67512 19.755C7.75469 18.6404 8.33658 17.5407 9.42079 16.456L11.8379 14.0526C11.7285 14.4307 11.6837 14.8388 11.7036 15.2766C11.7235 15.7046 11.7981 16.0529 11.9274 16.3216L10.6293 17.5905C9.90322 18.307 9.50037 19.0186 9.42079 19.7252C9.35117 20.4318 9.59984 21.0637 10.1668 21.621C10.7139 22.1684 11.3356 22.4022 12.0318 22.3226C12.7381 22.2331 13.4493 21.835 14.1655 21.1284L16.0753 19.2176C16.8113 18.5011 17.2241 17.7895 17.3136 17.0829C17.4032 16.3664 17.1694 15.7295 16.6124 15.1722C16.4433 15.0129 16.2344 14.8686 15.9857 14.7392C15.7371 14.6099 15.4735 14.5153 15.195 14.4556C15.2944 14.2168 15.4585 13.963 15.6873 13.6943C15.9161 13.4156 16.1449 13.1967 16.3737 13.0375C16.5626 13.0972 16.7865 13.2116 17.0451 13.3808C17.3037 13.55 17.5474 13.754 17.7762 13.9928C18.7211 14.9184 19.1488 15.9434 19.0593 17.068C18.9797 18.1826 18.3978 19.2873 17.3136 20.382L15.2994 22.3525C14.2251 23.4173 13.131 23.9945 12.0169 24.0841C10.9128 24.1637 9.89824 23.7408 8.97318 22.8152ZM22.5507 9.15621C23.4857 10.0917 23.9134 11.1167 23.8338 12.2314C23.7542 13.336 23.1773 14.4307 22.1031 15.5155L19.671 17.9338C19.7904 17.5457 19.8401 17.1377 19.8203 16.7097C19.8004 16.2718 19.7258 15.9185 19.5964 15.6498L20.8945 14.381C21.6107 13.6644 22.0086 12.9529 22.0881 12.2463C22.1677 11.5397 21.924 10.9127 21.357 10.3654C20.8 9.80806 20.1684 9.57419 19.4622 9.66376C18.7659 9.74337 18.0597 10.1365 17.3435 10.8431L15.4486 12.7538C14.7125 13.4704 14.2997 14.1869 14.2102 14.9035C14.1207 15.62 14.3544 16.2569 14.9115 16.8142C15.0806 16.9635 15.2894 17.1028 15.5381 17.2322C15.7868 17.3616 16.0504 17.4561 16.3289 17.5158C16.2294 17.7646 16.0653 18.0234 15.8365 18.2921C15.6077 18.5608 15.379 18.7748 15.1502 18.934C14.9612 18.8743 14.7374 18.7598 14.4788 18.5906C14.2202 18.4215 13.9765 18.2174 13.7477 17.9786C12.8027 17.0531 12.37 16.033 12.4496 14.9184C12.5391 13.7938 13.126 12.6842 14.2102 11.5895L16.2245 9.61897C17.2987 8.55411 18.3879 7.98188 19.492 7.90226C20.6061 7.8127 21.6256 8.23068 22.5507 9.15621Z" fill="#7010DF"/>
</svg>
