<svg width="32" height="32" viewBox="0 0 32 32" fill="none" xmlns="http://www.w3.org/2000/svg">
<path d="M16.0007 29.513C8.55273 29.513 2.41992 23.3802 2.41992 15.9323C2.41992 8.4974 8.55273 2.35156 15.9876 2.35156C23.4355 2.35156 29.5814 8.4974 29.5814 15.9323C29.5814 23.3802 23.4486 29.513 16.0007 29.513ZM16.0007 26.5312C21.873 26.5312 26.5996 21.8047 26.5996 15.9323C26.5996 10.0599 21.873 5.33333 15.9876 5.33333C10.1152 5.33333 5.41471 10.0599 5.41471 15.9323C5.41471 21.8047 10.1283 26.5312 16.0007 26.5312ZM15.9876 23.1719C15.6491 23.1719 15.4017 22.9375 15.4017 22.5729V21.7135C13.4876 21.5703 12.1335 20.5807 11.7559 19.2656C11.7038 19.0964 11.6777 18.9401 11.6777 18.7839C11.6777 18.224 12.0553 17.8333 12.6543 17.8333C13.1361 17.8333 13.4616 18.0807 13.6569 18.5625C13.8652 19.2656 14.4251 19.7865 15.4017 19.9297V16.7526L15.1152 16.6875C12.9538 16.1927 11.8079 15.2031 11.8079 13.4844C11.8079 11.6354 13.3053 10.3724 15.4017 10.1901V9.33073C15.4017 8.97917 15.6491 8.74479 15.9876 8.74479C16.3132 8.74479 16.5605 8.97917 16.5605 9.33073V10.1901C18.3574 10.3594 19.6595 11.3229 20.0111 12.638C20.0501 12.7943 20.0892 12.9505 20.0892 13.1068C20.0892 13.6406 19.6986 14.0052 19.1257 14.0052C18.6309 14.0052 18.3314 13.7578 18.11 13.3021C17.8626 12.599 17.3288 12.1432 16.5605 12.013V15.0078L16.9251 15.0859C19.1908 15.5156 20.3236 16.5443 20.3236 18.3151C20.3236 20.3073 18.735 21.5312 16.5605 21.7266V22.5729C16.5605 22.9245 16.3132 23.1719 15.9876 23.1719ZM15.4017 14.7214V11.987C14.4772 12.1302 13.9043 12.6771 13.9043 13.3411C13.9043 13.9922 14.347 14.4219 15.3105 14.6953L15.4017 14.7214ZM16.5605 17.0391V19.9297C17.6803 19.7995 18.2402 19.2526 18.2402 18.4844C18.2402 17.7943 17.8496 17.3646 16.7949 17.0911L16.5605 17.0391Z" fill="#0A0019"/>
</svg>
