<svg width="32" height="32" viewBox="0 0 32 32" fill="none" xmlns="http://www.w3.org/2000/svg">
<path d="M16.9248 28.5234C15.1319 30.3281 13.1983 30.3398 11.3701 28.5234L3.85841 21.0234C2.03029 19.1953 2.05373 17.25 3.85841 15.457L15.3897 3.9375C16.3389 2.98828 16.8897 2.85938 18.2842 2.85938H22.7256C24.0498 2.85938 24.5303 3.17578 25.5264 4.17187L28.1983 6.84375C29.1826 7.82812 29.499 8.32031 29.499 9.64453V14.0859C29.499 15.4805 29.3936 16.043 28.4444 16.9922L16.9248 28.5234ZM15.2725 26.4844L26.6162 15.1289C26.8506 14.9062 26.9561 14.6953 26.9561 14.3086V9.71484C26.9561 9.375 26.8389 9.14062 26.6162 8.91797L23.4522 5.75391C23.2295 5.53125 22.9834 5.40234 22.6436 5.40234H18.0615C17.6983 5.40234 17.4873 5.53125 17.2529 5.76562L5.88576 17.1094C5.15919 17.8359 5.13576 18.5977 5.89748 19.3594L13.0225 26.4844C13.7842 27.2344 14.5342 27.2227 15.2725 26.4844ZM21.2139 12.8906C20.2178 12.8906 19.4795 12.1289 19.4795 11.1562C19.4795 10.1836 20.2178 9.42187 21.2139 9.42187C22.1983 9.42187 22.9483 10.1836 22.9483 11.1562C22.9483 12.1289 22.1983 12.8906 21.2139 12.8906Z" fill="#0A0019"/>
</svg>
