<svg width="20" height="20" viewBox="0 0 20 20" fill="none" xmlns="http://www.w3.org/2000/svg">
<path d="M10.3513 19.4976C15.6083 19.4976 19.8699 15.2453 19.8699 9.99977C19.8699 4.75427 15.6083 0.501953 10.3513 0.501953C5.09431 0.501953 0.832684 4.75427 0.832684 9.99977C0.832684 15.2453 5.09431 19.4976 10.3513 19.4976Z" fill="#163865"/>
<path d="M2.27439 4.96331C2.0336 4.68632 1.77413 4.42606 1.4978 4.18435C1.08182 3.82027 0.636654 3.49079 0.166776 3.1992C0.157585 3.19344 0.148789 3.18728 0.129883 3.1747C0.18962 3.15532 0.240955 3.13711 0.29334 3.1223C1.15592 2.86946 2.0361 2.73073 2.93583 2.72929C3.34488 2.72736 3.75351 2.75547 4.15842 2.81339C4.58236 2.87549 5.00275 2.95462 5.415 3.07357C6.54214 3.39634 7.59689 3.93153 8.52227 4.65021C9.55509 5.44986 10.377 6.42663 10.988 7.58051C11.2168 8.00981 11.3838 8.46322 11.5498 8.91794C11.6995 9.32785 11.854 9.73645 12.0856 10.109C12.4139 10.638 12.8242 11.0978 13.2961 11.5042C13.8447 11.9765 14.4472 12.3713 15.0645 12.7454L15.8641 13.2301C15.7106 13.275 15.5651 13.3189 15.419 13.3602C14.8762 13.513 14.3218 13.6216 13.7613 13.6848C13.1091 13.7601 12.4515 13.7763 11.7964 13.733C10.9017 13.6725 10.0298 13.5016 9.18371 13.2064C8.08966 12.8249 7.09828 12.2686 6.242 11.4821C5.33045 10.6447 4.64314 9.65523 4.20699 8.49623C4.08017 8.15981 3.98091 7.81344 3.84279 7.48082C3.46655 6.57414 2.94665 5.73372 2.30301 4.99173C2.29343 4.98125 2.28358 4.97261 2.27439 4.96331Z" fill="#CDA839"/>
<path d="M17.6819 4.14165C17.6147 4.1951 17.5506 4.24344 17.4898 4.29479C16.8484 4.83401 16.3857 5.50187 16.066 6.27178C15.8953 6.68156 15.7841 7.10719 15.7018 7.54331C15.5429 8.38344 15.1749 9.12977 14.6515 9.80261C14.4008 10.1244 14.1149 10.4119 13.8095 10.6814C13.7721 10.7143 13.7582 10.6899 13.737 10.6693C13.1782 10.1244 12.7536 9.49475 12.5072 8.74973C12.3176 8.17658 12.0904 7.6185 11.8053 7.08532C11.7868 7.0506 11.7934 7.02676 11.8087 6.99597C12.125 6.36505 12.5617 5.82794 13.0913 5.36457C13.5777 4.93716 14.1361 4.59901 14.7406 4.3658C15.2546 4.16746 15.7853 4.03933 16.3395 4.01994C16.5841 4.01143 16.8283 3.98759 17.0735 4.00815C17.2705 4.02479 17.4638 4.05309 17.6487 4.12606C17.6578 4.1296 17.667 4.13457 17.6819 4.14165Z" fill="#FEFEFE"/>
<path d="M7.29916 13.3468C7.32253 13.3582 7.34236 13.3668 7.36113 13.3772C8.32848 13.9066 9.35793 14.2645 10.4364 14.4876C10.7098 14.5443 10.9855 14.5862 11.2628 14.6204C11.4955 14.6491 11.7279 14.6777 11.9625 14.6842C11.994 14.6851 12.0048 14.6948 12.0116 14.7281C12.0469 14.9062 12.0732 15.0859 12.0904 15.2667C12.1142 15.4982 12.1224 15.7311 12.1149 15.9637C12.0842 16.8706 11.8484 17.721 11.4077 18.5151C11.2466 18.8002 11.0611 19.071 10.8535 19.3244C10.8377 19.3439 10.7998 19.3566 10.8204 19.398C10.8275 19.4122 10.8036 19.4127 10.7916 19.4128C10.7181 19.4128 10.6447 19.4128 10.5628 19.4128C10.6641 19.3558 10.6652 19.3557 10.6426 19.2425C10.4509 18.2762 10.0743 17.3954 9.4333 16.6363C9.24122 16.4089 9.02748 16.2022 8.81216 15.9977C8.05763 15.2811 7.57461 14.4091 7.30533 13.4124C7.30139 13.3978 7.29772 13.383 7.2947 13.368C7.29528 13.3608 7.29678 13.3537 7.29916 13.3468Z" fill="#CDA839"/>
</svg>
