<svg width="24" height="24" viewBox="0 0 24 24" fill="none" xmlns="http://www.w3.org/2000/svg">
<path d="M2.90234 19.9854C2.22559 19.9854 1.69824 19.458 1.69824 18.79V16.4258C1.4082 16.0654 1.25 15.5996 1.25 15.0283V13.4727C1.25 11.8906 1.50488 10.9941 2.35742 9.93066L3.15723 8.9375C3.48242 7.35547 4.07129 5.70312 4.37012 5.05273C4.87109 3.98047 5.84668 3.33008 7.09473 3.17188C7.75391 3.09277 9.61719 3.03125 11.999 3.03125C14.3809 3.03125 16.2354 3.08398 16.9033 3.17188C18.1426 3.33887 19.1182 3.98926 19.6191 5.05273C19.9268 5.70312 20.5068 7.35547 20.832 8.9375L21.6318 9.93066C22.4844 10.9941 22.7393 11.8906 22.7393 13.4727V15.0283C22.7393 15.5996 22.5898 16.0654 22.291 16.4258V18.79C22.291 19.458 21.7637 19.9854 21.0869 19.9854H20.0146C19.3379 19.9854 18.8105 19.458 18.8105 18.79V17.3574C16.8682 17.4717 14.1963 17.5508 11.999 17.5508C9.79297 17.5508 7.12988 17.4717 5.17871 17.3574V18.79C5.17871 19.458 4.66016 19.9854 3.97461 19.9854H2.90234ZM11.999 15.96C15.0312 15.96 18.7139 15.8193 20.1465 15.6523C20.9023 15.5645 21.1924 15.1865 21.1924 14.5098V13.3496C21.1924 12.1719 20.9463 11.6006 20.3662 10.8447L19.3906 9.55273C19.1709 8.41895 18.6172 6.57324 18.2568 5.81738C17.9492 5.18457 17.3955 4.83301 16.6309 4.73633C16.042 4.66602 14.3369 4.57812 11.999 4.57812C9.65234 4.57812 7.97363 4.65723 7.34961 4.73633C6.60254 4.83301 6.04004 5.17578 5.74121 5.80859C5.37207 6.58203 4.80957 8.44531 4.60742 9.55273L3.62305 10.8447C3.04297 11.6006 2.80566 12.1719 2.80566 13.3496V14.5098C2.80566 15.1865 3.0957 15.5645 3.84277 15.6523C5.27539 15.8193 8.9668 15.96 11.999 15.96ZM5.79395 8.59473C5.97852 7.80371 6.32129 6.75781 6.5498 6.33594C6.80469 5.87012 7.10352 5.68555 7.65723 5.60645C8.21973 5.52734 9.65234 5.4834 11.999 5.4834C14.3369 5.4834 15.7695 5.52734 16.3408 5.60645C16.8857 5.68555 17.1934 5.87012 17.4395 6.33594C17.6768 6.75781 18.0195 7.80371 18.1953 8.59473C18.292 8.97266 18.125 9.16602 17.7119 9.14844C16.4902 9.07812 14.8906 8.99902 11.999 8.99902C9.09863 8.99902 7.49902 9.07812 6.27734 9.14844C5.86426 9.16602 5.70605 8.97266 5.79395 8.59473ZM5.62695 14.8877C4.76562 14.8877 4.11523 14.2285 4.11523 13.376C4.11523 12.5146 4.76562 11.8643 5.62695 11.8643C6.47949 11.8643 7.13867 12.5146 7.13867 13.376C7.13867 14.2285 6.47949 14.8877 5.62695 14.8877ZM18.3711 14.8877C17.5098 14.8877 16.8594 14.2285 16.8594 13.376C16.8594 12.5146 17.5098 11.8643 18.3711 11.8643C19.2236 11.8643 19.874 12.5146 19.874 13.376C19.874 14.2285 19.2236 14.8877 18.3711 14.8877ZM9.59082 14.501C8.94922 14.501 8.49219 14.0527 8.49219 13.4111C8.49219 12.7607 8.94922 12.3125 9.59082 12.3125H14.4072C15.0488 12.3125 15.4971 12.7607 15.4971 13.4111C15.4971 14.0527 15.0488 14.501 14.4072 14.501H9.59082Z" fill="#0A0019"/>
</svg>
