<svg width="24" height="24" viewBox="0 0 24 24" fill="none" xmlns="http://www.w3.org/2000/svg">
<path d="M2.36133 10.1719C2.36133 5.78711 5.92578 2.22266 10.3105 2.22266C14.6953 2.22266 18.2598 5.78711 18.2598 10.1719C18.2598 11.8809 17.7031 13.4629 16.7754 14.7422L21.2383 19.2148C21.502 19.4883 21.6387 19.8496 21.6387 20.2402C21.6387 21.0508 21.043 21.6758 20.2129 21.6758C19.832 21.6758 19.4512 21.5488 19.1777 21.2656L14.6855 16.7734C13.4355 17.623 11.9414 18.1211 10.3105 18.1211C5.92578 18.1211 2.36133 14.5566 2.36133 10.1719ZM4.43164 10.1719C4.43164 13.4141 7.05859 16.0508 10.3105 16.0508C13.5527 16.0508 16.1895 13.4141 16.1895 10.1719C16.1895 6.92969 13.5527 4.29297 10.3105 4.29297C7.05859 4.29297 4.43164 6.92969 4.43164 10.1719ZM10.3203 14.166C10.1348 14.166 9.99805 14.0293 9.96875 13.8535C9.58789 11.3145 9.26562 10.7969 6.64844 10.5137C6.45312 10.4844 6.32617 10.3477 6.32617 10.1719C6.32617 9.98633 6.46289 9.85938 6.64844 9.82031C9.26562 9.46875 9.50977 9.0293 9.96875 6.49023C10.0078 6.30469 10.1348 6.17773 10.3203 6.17773C10.4863 6.17773 10.6328 6.31445 10.6621 6.5C11.043 9 11.3848 9.46875 13.9824 9.82031C14.1777 9.85938 14.3047 9.98633 14.3047 10.1719C14.3047 10.3477 14.1777 10.4844 13.9824 10.5137C11.3652 10.8652 11.1211 11.3145 10.6621 13.8535C10.623 14.0293 10.4961 14.166 10.3203 14.166Z" fill="#0A0019"/>
</svg>
