<svg width="21" height="21" viewBox="0 0 21 21" fill="none" xmlns="http://www.w3.org/2000/svg">
<path d="M3.25 7.06738C3.25 6.3291 3.8125 5.75781 4.49805 5.75781C5.1836 5.75781 5.71094 6.3291 5.71094 7.0498L5.71094 10.4072L5.58789 13.2021L6.95899 11.6641L14.7373 3.89453C15.0186 3.62207 15.3438 3.47266 15.6777 3.47266C16.3545 3.47266 16.9697 4.09668 16.9697 4.76465C16.9697 5.09863 16.8115 5.42383 16.5391 5.70508L8.77832 13.4834L7.24023 14.8457L10.1318 14.7402L13.3926 14.7402C14.1133 14.7402 14.6846 15.2676 14.6846 15.9443C14.6846 16.6299 14.1309 17.1924 13.3838 17.1924L4.57715 17.1924C3.77734 17.1924 3.24121 16.6562 3.24121 15.8652L3.25 7.06738Z" fill="#54B900"/>
</svg>
