<svg width="44" height="44" viewBox="0 0 44 44" fill="none" xmlns="http://www.w3.org/2000/svg">
<path d="M9.68227 41.3509H34.2998C36.1498 41.3509 37.5523 40.8735 38.5071 39.9186C39.4739 38.9757 39.9573 37.5852 39.9573 35.7471V18.3268C39.9573 16.4887 39.4739 15.0982 38.5071 14.1553C37.5523 13.2004 36.1498 12.723 34.2998 12.723H9.68227C7.82029 12.723 6.41187 13.1944 5.45701 14.1374C4.50215 15.0803 4.02472 16.4768 4.02472 18.3268V35.7471C4.02472 37.5852 4.50215 38.9757 5.45701 39.9186C6.41187 40.8735 7.82029 41.3509 9.68227 41.3509ZM9.95083 37.7702C9.19887 37.7702 8.61999 37.5732 8.21417 37.1794C7.82029 36.7974 7.62335 36.2066 7.62335 35.4069V18.667C7.62335 17.8673 7.82029 17.2765 8.21417 16.8945C8.61999 16.5007 9.19887 16.3037 9.95083 16.3037H34.0133C34.7653 16.3037 35.3442 16.5007 35.75 16.8945C36.1558 17.2765 36.3587 17.8673 36.3587 18.667V35.4069C36.3587 36.2066 36.1558 36.7974 35.75 37.1794C35.3442 37.5732 34.7653 37.7702 34.0133 37.7702H9.95083ZM7.82029 9.93001H36.1797C36.0603 9.11838 35.7739 8.48579 35.3203 8.03223C34.8667 7.57867 34.1745 7.35189 33.2435 7.35189H10.7386C9.8076 7.35189 9.11532 7.57867 8.66176 8.03223C8.22014 8.48579 7.93965 9.11838 7.82029 9.93001ZM11.2578 4.9707H32.7422C32.6825 4.20681 32.4259 3.62196 31.9723 3.21615C31.5188 2.81033 30.8802 2.60742 30.0566 2.60742H13.9433C13.1198 2.60742 12.4812 2.81033 12.0276 3.21615C11.5741 3.62196 11.3175 4.20681 11.2578 4.9707Z" fill="#7010DF"/>
</svg>
