<svg width="24" height="24" viewBox="0 0 24 24" fill="none" xmlns="http://www.w3.org/2000/svg">
<path d="M6.69141 19.9512C4.74902 19.9512 3.71191 18.9316 3.71191 17.0068V6.32812C3.71191 4.40332 4.74902 3.375 6.69141 3.375H17.3086C19.2598 3.375 20.2881 4.40332 20.2881 6.32812V17.0068C20.2881 18.9316 19.2598 19.9512 17.3086 19.9512H6.69141ZM14.9004 14.1504C15.3926 14.1504 15.709 13.7812 15.709 13.2363V9.00879C15.709 8.30566 15.3135 7.96289 14.6543 7.96289H10.4092C9.85547 7.96289 9.50391 8.28809 9.50391 8.78906C9.50391 9.29004 9.86426 9.60645 10.418 9.60645H11.8594L13.0371 9.46582L11.7275 10.6436L8.65137 13.7197C8.4668 13.9043 8.36133 14.1504 8.36133 14.3877C8.36133 14.9326 8.74805 15.293 9.25781 15.293C9.53906 15.293 9.76758 15.1963 9.96094 15.0029L13.0283 11.9355L14.1973 10.6436L14.0742 11.8828V13.2451C14.0742 13.7988 14.3906 14.1504 14.9004 14.1504Z" fill="#7010DF"/>
</svg>
