<svg width="22" height="22" viewBox="0 0 22 22" fill="none" xmlns="http://www.w3.org/2000/svg">
<path d="M16.4959 11.1463C16.4959 10.9892 16.4668 10.8408 16.4086 10.7012C16.3446 10.5615 16.2486 10.4335 16.1206 10.3171L9.74042 4.06787C9.53676 3.86422 9.29238 3.76239 9.00726 3.76239C8.80943 3.76239 8.63196 3.81185 8.47485 3.91077C8.31193 4.00387 8.18392 4.12897 8.09082 4.28607C7.99772 4.44318 7.95117 4.62065 7.95117 4.81848C7.95117 5.1036 8.05882 5.35671 8.27411 5.57782L14.3837 11.5303L14.3837 10.7535L8.27411 16.7148C8.05882 16.9301 7.95117 17.1832 7.95117 17.4741C7.95117 17.672 7.99772 17.8494 8.09082 18.0065C8.18392 18.1636 8.31193 18.2887 8.47485 18.3818C8.63196 18.4749 8.80943 18.5215 9.00726 18.5215C9.15273 18.5215 9.28656 18.4953 9.40875 18.4429C9.52513 18.3906 9.63568 18.3149 9.74042 18.216L16.1293 11.9755C16.3737 11.7253 16.4959 11.4489 16.4959 11.1463Z" fill="#C2C5DC"/>
</svg>
