<svg width="24" height="24" viewBox="0 0 24 24" fill="none" xmlns="http://www.w3.org/2000/svg">
<path d="M11.8406 17.9934C12.012 17.9934 12.1738 17.9617 12.3262 17.8982C12.4785 17.8284 12.6182 17.7236 12.7451 17.584L19.5625 10.6238C19.7847 10.4016 19.8958 10.135 19.8958 9.82397C19.8958 9.60815 19.8418 9.41455 19.7339 9.24316C19.6323 9.06543 19.4958 8.92578 19.3245 8.82422C19.1531 8.72266 18.9595 8.67188 18.7437 8.67188C18.4326 8.67188 18.1565 8.78931 17.9153 9.02417L11.4216 15.6892H12.269L5.76587 9.02417C5.53101 8.78931 5.25488 8.67188 4.9375 8.67188C4.72168 8.67188 4.52808 8.72266 4.35669 8.82422C4.1853 8.92578 4.04883 9.06543 3.94727 9.24316C3.8457 9.41455 3.79492 9.60815 3.79492 9.82397C3.79492 9.98267 3.82349 10.1287 3.88062 10.262C3.93774 10.3889 4.02026 10.5095 4.12817 10.6238L10.936 17.5935C11.209 17.8601 11.5105 17.9934 11.8406 17.9934Z" fill="#0A0019"/>
</svg>
