<svg width="24" height="24" viewBox="0 0 24 24" fill="none" xmlns="http://www.w3.org/2000/svg">
<path d="M12 22.0352C6.48242 22.0352 1.91211 17.4746 1.91211 11.9473C1.91211 6.42969 6.47266 1.85938 11.9902 1.85938C17.5176 1.85938 22.0879 6.42969 22.0879 11.9473C22.0879 17.4746 17.5176 22.0352 12 22.0352ZM7.20508 9.38867H16.834C17.3418 9.38867 17.6934 9.06641 17.6934 8.58789C17.6934 8.10938 17.3418 7.78711 16.834 7.78711H7.20508C6.6875 7.78711 6.33594 8.10938 6.33594 8.58789C6.33594 9.06641 6.6875 9.38867 7.20508 9.38867ZM7.20508 12.748H16.834C17.3418 12.748 17.6934 12.4258 17.6934 11.9375C17.6934 11.459 17.3418 11.1367 16.834 11.1367H7.20508C6.6875 11.1367 6.33594 11.459 6.33594 11.9375C6.33594 12.4258 6.6875 12.748 7.20508 12.748ZM7.20508 16.0977H16.834C17.3418 16.0977 17.6934 15.7852 17.6934 15.2969C17.6934 14.8184 17.3418 14.4961 16.834 14.4961H7.20508C6.6875 14.4961 6.33594 14.8184 6.33594 15.2969C6.33594 15.7852 6.6875 16.0977 7.20508 16.0977Z" fill="#0A0019"/>
</svg>
