<svg width="24" height="24" viewBox="0 0 24 24" fill="none" xmlns="http://www.w3.org/2000/svg">
<path d="M9.14844 13.0801C9.14844 13.1712 9.18099 13.2493 9.24609 13.3145C9.31771 13.373 9.39909 13.4023 9.49023 13.4023H11.6875L10.5156 16.5078C10.457 16.6641 10.4603 16.791 10.5254 16.8887C10.597 16.9863 10.6914 17.0384 10.8086 17.0449C10.9323 17.0449 11.0462 16.9831 11.1504 16.8594L14.7539 12.377C14.8385 12.2858 14.8809 12.1914 14.8809 12.0938C14.8809 12.0026 14.8451 11.9277 14.7734 11.8691C14.7083 11.804 14.6302 11.7715 14.5391 11.7715H12.3516L13.5137 8.67578C13.5723 8.51302 13.5658 8.38281 13.4941 8.28516C13.429 8.1875 13.3346 8.13867 13.2109 8.13867C13.0938 8.13216 12.9863 8.19401 12.8887 8.32422L9.26562 12.7969C9.1875 12.901 9.14844 12.9954 9.14844 13.0801ZM2.73242 9.4082C2.73242 10.7233 3.08073 12.0286 3.77734 13.3242C4.47396 14.6133 5.45703 15.8698 6.72656 17.0938C7.99609 18.3177 9.48698 19.4831 11.1992 20.5898C11.3555 20.694 11.5182 20.7852 11.6875 20.8633C11.8633 20.9479 12.013 20.9902 12.1367 20.9902C12.2669 20.9902 12.4167 20.9479 12.5859 20.8633C12.7552 20.7852 12.9212 20.694 13.084 20.5898C14.7962 19.4831 16.2839 18.3177 17.5469 17.0938C18.8164 15.8698 19.7995 14.6133 20.4961 13.3242C21.1927 12.0286 21.541 10.7233 21.541 9.4082C21.541 8.54232 21.401 7.75456 21.1211 7.04492C20.8477 6.32878 20.4635 5.71029 19.9688 5.18945C19.474 4.66862 18.8978 4.26823 18.2402 3.98828C17.5827 3.70833 16.873 3.56836 16.1113 3.56836C15.2259 3.56836 14.4447 3.75391 13.7676 4.125C13.0905 4.49609 12.5469 4.98112 12.1367 5.58008C11.7266 4.98763 11.1829 4.50586 10.5059 4.13477C9.82878 3.75716 9.04753 3.56836 8.16211 3.56836C7.4069 3.56836 6.69727 3.70833 6.0332 3.98828C5.37565 4.26823 4.79948 4.66862 4.30469 5.18945C3.81641 5.71029 3.43229 6.32878 3.15234 7.04492C2.8724 7.75456 2.73242 8.54232 2.73242 9.4082ZM4.76367 9.38867C4.76367 8.62695 4.91667 7.95964 5.22266 7.38672C5.53516 6.80729 5.95833 6.35807 6.49219 6.03906C7.02604 5.71354 7.63477 5.55078 8.31836 5.55078C8.85872 5.55078 9.32747 5.64518 9.72461 5.83398C10.1217 6.02279 10.457 6.26042 10.7305 6.54688C11.0104 6.82682 11.248 7.11003 11.4434 7.39648C11.5736 7.58529 11.6908 7.71875 11.7949 7.79688C11.8991 7.86849 12.013 7.9043 12.1367 7.9043C12.2669 7.9043 12.3809 7.86523 12.4785 7.78711C12.5762 7.70898 12.6934 7.57878 12.8301 7.39648C13.0384 7.11003 13.2793 6.82682 13.5527 6.54688C13.8327 6.26042 14.168 6.02279 14.5586 5.83398C14.9492 5.64518 15.418 5.55078 15.9648 5.55078C16.6419 5.55078 17.2474 5.71354 17.7812 6.03906C18.3151 6.35807 18.735 6.80729 19.041 7.38672C19.3535 7.95964 19.5098 8.62695 19.5098 9.38867C19.5098 10.1895 19.3177 11.0065 18.9336 11.8398C18.556 12.6667 18.0352 13.487 17.3711 14.3008C16.707 15.1146 15.9388 15.8991 15.0664 16.6543C14.2005 17.403 13.2793 18.1029 12.3027 18.7539C12.2181 18.8125 12.1628 18.8418 12.1367 18.8418C12.1107 18.8418 12.0553 18.8125 11.9707 18.7539C10.9941 18.1029 10.0729 17.403 9.20703 16.6543C8.34115 15.8991 7.57292 15.1146 6.90234 14.3008C6.23828 13.487 5.71419 12.6667 5.33008 11.8398C4.95247 11.0065 4.76367 10.1895 4.76367 9.38867Z" fill="#EC002A"/>
</svg>
