<svg width="24" height="24" viewBox="0 0 24 24" fill="none" xmlns="http://www.w3.org/2000/svg">
<path d="M8.2207 15.7236C5.59277 13.0957 3.58887 9.93164 3.58887 7.33008C3.58887 6.17871 3.98438 5.1416 4.87207 4.30664C5.39941 3.81445 5.99707 3.55078 6.59473 3.55078C7.11328 3.55078 7.59668 3.75293 7.93066 4.21875L9.83789 6.89941C10.1455 7.33887 10.2861 7.69043 10.2861 8.01562C10.2861 8.4375 10.0488 8.80664 9.64453 9.21973L9.00293 9.87012C8.90625 9.9668 8.87109 10.0898 8.87109 10.2041C8.87109 10.3447 8.92383 10.4766 8.96777 10.5732C9.27539 11.1357 10.1016 12.085 10.9805 12.9727C11.8682 13.8516 12.8262 14.6777 13.3799 14.9854C13.4766 15.0381 13.6172 15.0908 13.749 15.0908C13.8721 15.0908 13.9951 15.0469 14.0918 14.9502L14.7334 14.3086C15.1465 13.9043 15.5156 13.667 15.9375 13.667C16.2627 13.667 16.6143 13.8076 17.0537 14.1152L19.7607 16.04C20.2178 16.374 20.4111 16.8398 20.4111 17.332C20.4111 17.9385 20.1299 18.5449 19.6553 19.0723C18.8291 19.9863 17.8096 20.3906 16.6494 20.3906C14.0479 20.3906 10.8574 18.3604 8.2207 15.7236Z" fill="#0A0019"/>
</svg>
