<svg width="24" height="24" viewBox="0 0 24 24" fill="none" xmlns="http://www.w3.org/2000/svg">
<path d="M5.13607 15.0273C5.04015 15.1289 4.9668 15.2389 4.91602 15.3574C4.86523 15.4703 4.83984 15.6 4.83984 15.7467C4.83984 15.9329 4.88498 16.1022 4.97526 16.2546C5.06554 16.4069 5.18685 16.531 5.33919 16.627C5.49154 16.7172 5.66363 16.7624 5.85547 16.7624C6.14887 16.7624 6.39431 16.658 6.5918 16.4492L12.3724 10.5247H11.6191L17.3913 16.4492C17.5888 16.658 17.8342 16.7624 18.1276 16.7624C18.3194 16.7624 18.4915 16.7172 18.6439 16.627C18.7962 16.531 18.9175 16.4069 19.0078 16.2546C19.1037 16.1022 19.1517 15.9329 19.1517 15.7467C19.1517 15.459 19.053 15.2192 18.8555 15.0273L12.7956 8.84049C12.6827 8.71636 12.5586 8.62609 12.4232 8.56966C12.2878 8.5076 12.1439 8.47656 11.9915 8.47656C11.6925 8.47656 11.4245 8.59787 11.1875 8.84049L5.13607 15.0273Z" fill="#0A0019"/>
</svg>
