<svg width="24" height="24" viewBox="0 0 24 24" fill="none" xmlns="http://www.w3.org/2000/svg">
<path d="M12.6816 13.082C11.085 13.082 9.91309 14.0562 9.91309 15.8433V17.0225H3.35059C1.96631 17.0225 1.22656 16.3047 1.22656 14.8984V6.41699C1.22656 5.01074 1.96631 4.29297 3.35059 4.29297H17.9551C19.3467 4.29297 20.0791 5.01074 20.0791 6.41699V13.082H12.6816ZM12.6816 20.5234C11.561 20.5234 10.9824 19.9302 10.9824 18.8096V15.8433C10.9824 14.7446 11.561 14.1514 12.6816 14.1514H21.0605C22.1738 14.1514 22.7671 14.7446 22.7671 15.8726V18.8096C22.7671 19.9302 22.1738 20.5234 21.0605 20.5234H12.6816ZM20.0498 17.8794C20.5845 17.8794 21.0166 17.4399 21.0166 16.9053C21.0166 16.3706 20.5845 15.9385 20.0498 15.9385C19.5151 15.9385 19.0757 16.3706 19.0757 16.9053C19.0757 17.4399 19.5151 17.8794 20.0498 17.8794ZM6.86621 19.6372C6.4707 19.6372 6.14844 19.3076 6.14844 18.9268C6.14844 18.5386 6.4707 18.2017 6.86621 18.2017H9.91309C9.91309 18.8169 9.92773 19.3003 10.0083 19.6372H6.86621Z" fill="#0A0019"/>
</svg>
