<svg width="24" height="24" viewBox="0 0 24 24" fill="none" xmlns="http://www.w3.org/2000/svg">
<path d="M7.64453 4.6543H9.65625V3.02344C9.65625 2.82161 9.7181 2.66211 9.8418 2.54492C9.9655 2.42122 10.1413 2.35938 10.3691 2.35938H13.6211C13.8424 2.35938 14.0182 2.42122 14.1484 2.54492C14.2786 2.66211 14.3438 2.82161 14.3438 3.02344V4.6543H16.3359V2.94531C16.3359 2.19661 16.1081 1.61068 15.6523 1.1875C15.1966 0.764323 14.5618 0.552734 13.748 0.552734H10.2324C9.41862 0.552734 8.78385 0.764323 8.32812 1.1875C7.8724 1.61068 7.64453 2.19661 7.64453 2.94531V4.6543ZM3.68945 6.03125H20.3105C20.5514 6.03125 20.7565 5.94987 20.9258 5.78711C21.0951 5.62435 21.1797 5.41602 21.1797 5.16211C21.1797 4.92122 21.0951 4.7194 20.9258 4.55664C20.7565 4.39388 20.5514 4.3125 20.3105 4.3125H3.68945C3.44857 4.3125 3.24349 4.39388 3.07422 4.55664C2.90495 4.7194 2.82031 4.92122 2.82031 5.16211C2.82031 5.41602 2.90495 5.62435 3.07422 5.78711C3.24349 5.94987 3.44857 6.03125 3.68945 6.03125ZM19.0801 5.8457H4.92969L5.52539 19.332C5.55143 19.9766 5.74674 20.4681 6.11133 20.8066C6.47591 21.1452 6.98372 21.3145 7.63477 21.3145H16.375C17.026 21.3145 17.5306 21.1452 17.8887 20.8066C18.2533 20.4681 18.4518 19.9766 18.4844 19.332L19.0801 5.8457ZM9.02148 18.4238C8.83268 18.4238 8.67643 18.3685 8.55273 18.2578C8.43555 18.1406 8.3737 17.9844 8.36719 17.7891L8.09375 8.05273C8.08724 7.86393 8.14258 7.71094 8.25977 7.59375C8.38346 7.47656 8.54297 7.41797 8.73828 7.41797C8.93359 7.41797 9.0931 7.47656 9.2168 7.59375C9.3405 7.70443 9.4056 7.85742 9.41211 8.05273L9.68555 17.7793C9.69206 17.9746 9.63346 18.1309 9.50977 18.248C9.38607 18.3652 9.22331 18.4238 9.02148 18.4238ZM12 18.4238C11.8047 18.4238 11.6419 18.3652 11.5117 18.248C11.388 18.1309 11.3262 17.9779 11.3262 17.7891V8.04297C11.3262 7.85417 11.388 7.70443 11.5117 7.59375C11.6419 7.47656 11.8047 7.41797 12 7.41797C12.2018 7.41797 12.3646 7.47656 12.4883 7.59375C12.612 7.70443 12.6738 7.85417 12.6738 8.04297V17.7891C12.6738 17.9779 12.612 18.1309 12.4883 18.248C12.3646 18.3652 12.2018 18.4238 12 18.4238ZM14.9688 18.4238C14.7669 18.4238 14.6042 18.3652 14.4805 18.248C14.3633 18.1309 14.3079 17.9746 14.3145 17.7793L14.5879 8.05273C14.5944 7.85742 14.6595 7.70443 14.7832 7.59375C14.9069 7.47656 15.0664 7.41797 15.2617 7.41797C15.4635 7.41797 15.623 7.47656 15.7402 7.59375C15.8574 7.71094 15.9128 7.86393 15.9062 8.05273L15.6328 17.7891C15.6263 17.9844 15.5612 18.1406 15.4375 18.2578C15.3203 18.3685 15.1641 18.4238 14.9688 18.4238Z" fill="#E12127"/>
</svg>
