<svg width="50" height="50" viewBox="0 0 50 50" fill="none" xmlns="http://www.w3.org/2000/svg">
<path d="M24.9993 32.7747C26.0883 32.7747 27.1124 32.645 28.0716 32.3854C29.0308 32.1259 29.9138 31.7845 30.7207 31.3613C31.5332 30.9325 32.2582 30.4614 32.8958 29.9479C33.5334 29.4345 34.0751 28.9182 34.5208 28.3991C34.9666 27.88 35.3079 27.4004 35.5449 26.9603C35.7819 26.5202 35.9004 26.1647 35.9004 25.8939C35.9004 25.623 35.7819 25.2704 35.5449 24.8359C35.3079 24.3958 34.9666 23.9162 34.5208 23.3971C34.0751 22.878 33.5306 22.3618 32.8874 21.8483C32.2498 21.3349 31.5247 20.8665 30.7122 20.4434C29.9054 20.0145 29.0224 19.6704 28.0632 19.4108C27.1096 19.1513 26.0883 19.0215 24.9993 19.0215C23.9273 19.0215 22.9117 19.1513 21.9525 19.4108C20.9989 19.6704 20.1159 20.0145 19.3034 20.4434C18.4965 20.8665 17.7715 21.3349 17.1283 21.8483C16.4907 22.3618 15.9434 22.878 15.4863 23.3971C15.0349 23.9162 14.6879 24.3958 14.4453 24.8359C14.2083 25.2704 14.0898 25.623 14.0898 25.8939C14.0898 26.1647 14.2083 26.5202 14.4453 26.9603C14.6879 27.4004 15.0349 27.88 15.4863 28.3991C15.9434 28.9182 16.4907 29.4345 17.1283 29.9479C17.7715 30.4614 18.4965 30.9325 19.3034 31.3613C20.1159 31.7845 20.9989 32.1259 21.9525 32.3854C22.9117 32.645 23.9273 32.7747 24.9993 32.7747ZM24.9993 30.2357C24.1925 30.2357 23.459 30.0382 22.7988 29.6432C22.1443 29.2483 21.6196 28.7235 21.2246 28.069C20.8353 27.4089 20.6378 26.6866 20.6322 25.9023C20.6322 25.0898 20.8268 24.3563 21.2161 23.7018C21.6111 23.0473 22.1387 22.5282 22.7988 22.1445C23.459 21.7552 24.1925 21.5605 24.9993 21.5605C25.8006 21.5605 26.5312 21.7552 27.1914 22.1445C27.8572 22.5282 28.3848 23.0501 28.7741 23.7103C29.1691 24.3648 29.3665 25.0955 29.3665 25.9023C29.3665 26.4891 29.2537 27.0449 29.028 27.5697C28.8023 28.0888 28.4892 28.5514 28.0885 28.9577C27.6879 29.3583 27.2224 29.6714 26.6921 29.8971C26.1673 30.1228 25.6031 30.2357 24.9993 30.2357ZM24.9993 27.5443C25.4507 27.5443 25.8372 27.3835 26.1589 27.0618C26.4861 26.7346 26.6497 26.3481 26.6497 25.9023C26.6497 25.451 26.4861 25.0645 26.1589 24.7428C25.8372 24.4212 25.4507 24.2604 24.9993 24.2604C24.548 24.2604 24.1586 24.4212 23.8314 24.7428C23.5098 25.0645 23.349 25.451 23.349 25.9023C23.349 26.3481 23.5098 26.7346 23.8314 27.0618C24.1586 27.3835 24.548 27.5443 24.9993 27.5443Z" fill="#0A0019"/>
</svg>
