<svg width="24" height="24" viewBox="0 0 24 24" fill="none" xmlns="http://www.w3.org/2000/svg">
<path d="M4.2168 11.9961C4.2168 12.3086 4.32747 12.5755 4.54883 12.7969C4.77018 13.0182 5.03385 13.1289 5.33984 13.1289H10.877V18.6562C10.877 18.9622 10.9844 19.2259 11.1992 19.4473C11.4206 19.6686 11.6875 19.7793 12 19.7793C12.3125 19.7793 12.5762 19.6686 12.791 19.4473C13.0124 19.2259 13.123 18.9622 13.123 18.6562V13.1289H18.6602C18.9661 13.1289 19.2266 13.0182 19.4414 12.7969C19.6628 12.5755 19.7734 12.3086 19.7734 11.9961C19.7734 11.6901 19.6628 11.4264 19.4414 11.2051C19.2266 10.9837 18.9661 10.873 18.6602 10.873H13.123V5.3457C13.123 5.03971 13.0124 4.77604 12.791 4.55469C12.5762 4.32682 12.3125 4.21289 12 4.21289C11.6875 4.21289 11.4206 4.32682 11.1992 4.55469C10.9844 4.77604 10.877 5.03971 10.877 5.3457V10.873H5.33984C5.03385 10.873 4.77018 10.9837 4.54883 11.2051C4.32747 11.4264 4.2168 11.6901 4.2168 11.9961Z" fill="#7010DF"/>
</svg>
