<svg width="24" height="24" viewBox="0 0 24 24" fill="none" xmlns="http://www.w3.org/2000/svg">
<path d="M0 0.0253906H23.9496V23.975H0V0.0253906Z" fill="#0A0019"/>
<path d="M0 0.0253906L6.02506 6.00024L11.9999 0.0253906H0Z" fill="#0A0019"/>
<path d="M0 0.0253906V12.0253L6.02506 6.00024L0 0.0253906Z" fill="#0A0019"/>
<path d="M11.9999 12.0251L6.02506 6L0 12.0251H11.9999Z" fill="#0A0019"/>
<path d="M12.0002 12.0253V0.0253906L6.02539 6.00024L12.0002 12.0253Z" fill="#0A0019"/>
<path d="M12 0.0253906V12.0253L17.9748 6.00024L12 0.0253906Z" fill="#0A0019"/>
<path d="M23.9999 12.0251L17.9748 6L12 12.0251H23.9999Z" fill="#0A0019"/>
<path d="M0 12.0254L6.02506 18.0002L11.9999 12.0254H0Z" fill="#0A0019"/>
<path d="M0 12.0254V23.9751L6.02506 18.0002L0 12.0254Z" fill="#0A0019"/>
<path d="M11.9999 23.9748L6.02506 18L0 23.9748H11.9999Z" fill="#0A0019"/>
<path d="M12.0002 23.9751V12.0254L6.02539 18.0002L12.0002 23.9751Z" fill="#0A0019"/>
<path d="M12 12.0254L17.9748 18.0002L23.9999 12.0254H12Z" fill="#0A0019"/>
<path d="M12 12.0254V23.9751L17.9748 18.0002L12 12.0254Z" fill="#0A0019"/>
<path d="M23.9999 23.9751L17.9748 18.0002L12 23.9751H23.9999ZM23.9999 23.9751V12.0254L17.9748 18.0002L23.9999 23.9751Z" fill="#0A0019"/>
<path d="M12 0.0253906L17.9748 6.00024L23.9999 0.0253906H12Z" fill="#0A0019"/>
<path d="M23.9997 12.0253V0.0253906L17.9746 6.00024L23.9997 12.0253Z" fill="#0A0019"/>
<path d="M24.0003 14.9873L16.3184 7.70703L4.66992 19.3555L8.88746 23.6232L16.3184 16.3429L24.0003 23.9747V14.9873Z" fill="white"/>
</svg>
